<?xml version="1.0" encoding="utf-8"?>
<!-- Generator: Adobe Illustrator 21.1.0, SVG Export Plug-In . SVG Version: 6.00 Build 0)  -->
<svg version="1.1" id="Layer_1" xmlns="http://www.w3.org/2000/svg" xmlns:xlink="http://www.w3.org/1999/xlink" x="0px" y="0px"
	 viewBox="0 0 1612.4 1080.3" style="enable-background:new 0 0 1612.4 1080.3;" xml:space="preserve">
<style type="text/css">
	.st0{fill:#A3CFDE;}
	.st1{fill:#B6D9E4;}
	.st2{fill:#C0DEE8;}
	.st3{fill:#B0D6E3;}
	.st4{fill:#BEDDE8;}
	.st5{fill:#C9E3EE;}
	.st6{fill:#C6E1EB;}
	.st7{fill:#B4CED7;}
	.st8{fill:#A0D0E0;}
	.st9{fill:#B6D5DE;}
	.st10{fill:#9FD0E0;}
	.st11{fill:#F8F6F6;}
	.st12{fill:#EEDACD;}
	.st13{fill:#EFDBCD;}
	.st14{fill:#BFB1B0;}
	.st15{fill:#FCFDFD;}
	.st16{fill:#B7D9E5;}
	.st17{fill:#E4D2A8;}
	.st18{fill:#A0CEDF;}
	.st19{fill:#9FB8C1;}
	.st20{fill:#FCE9DC;}
	.st21{fill:#FDFDFD;}
	.st22{fill:#F4E3D7;}
	.st23{fill:#FBE8DC;}
	.st24{fill:#E9D6A8;}
	.st25{fill:#F9E8DC;}
	.st26{fill:#E9D6A7;}
	.st27{fill:#BEDDE9;}
	.st28{fill:#BADCE7;}
	.st29{fill:#C0DFE8;}
	.st30{fill:#E6E7E7;}
	.st31{fill:#F0F1F1;}
	.st32{fill:#9DB6C1;}
	.st33{fill:#BCDCE7;}
	.st34{fill:#E7D4C8;}
	.st35{fill:#F8F9F9;}
	.st36{fill:#F0F0EF;}
	.st37{fill:#C8E2EB;}
	.st38{fill:#E7BFB9;}
	.st39{fill:#F2F2F2;}
	.st40{fill:#E2C2BE;}
	.st41{fill:#F8F6F5;}
	.st42{fill:#9FC0CC;}
	.st43{fill:#B7D9E4;}
	.st44{fill:#B7DAE5;}
	.st45{fill:#EFDACD;}
	.st46{fill:#E7D5C9;}
	.st47{fill:#F7F9F9;}
	.st48{fill:#FCFBF9;}
	.st49{fill:#E8D7CB;}
	.st50{fill:#EEC1BB;}
	.st51{fill:#F2F1F0;}
	.st52{fill:#F0DBCE;}
	.st53{fill:#F2EFEE;}
	.st54{fill:#C0DEE9;}
	.st55{fill:#BCDAE2;}
	.st56{fill:#F8F8F8;}
	.st57{fill:#A0B6BE;}
	.st58{fill:#FAE8DD;}
	.st59{fill:#ECC4BE;}
	.st60{fill:#9AB1BA;}
	.st61{fill:#E0C1BD;}
	.st62{fill:#FCE8DC;}
	.st63{fill:#F4F5F5;}
	.st64{fill:#F3E3D8;}
	.st65{fill:#C4E0EA;}
	.st66{fill:#F0DBCD;}
	.st67{fill:#F0F1F0;}
	.st68{fill:#A1B8C1;}
	.st69{fill:#C8E1E9;}
	.st70{fill:#C7E1EA;}
	.st71{fill:#FBFBFA;}
	.st72{fill:#BAD9E3;}
	.st73{fill:#C7E3EC;}
	.st74{fill:#F5F6F6;}
	.st75{fill:#C2DFE9;}
	.st76{fill:#E6C0BA;}
	.st77{fill:#C9E1E9;}
	.st78{fill:#A5BBC4;}
	.st79{fill:#F5F6F5;}
	.st80{fill:#F6F6F6;}
	.st81{fill:#C1DEE9;}
	.st82{fill:#EDECEC;}
	.st83{fill:#C0DFEA;}
	.st84{fill:#EEEDEE;}
	.st85{fill:#C3E0E9;}
	.st86{fill:#C2E0E9;}
	.st87{fill:#C4E0E9;}
	.st88{fill:#C1DFE9;}
	.st89{fill:#C1DEE8;}
	.st90{fill:#EAC2BD;}
	.st91{fill:#EDC3BD;}
	.st92{fill:#C6DFE8;}
	.st93{fill:#C1DFE8;}
	.st94{fill:#ACC1CA;}
	.st95{fill:#AECCD6;}
	.st96{fill:#BBDBE5;}
	.st97{fill:#FAF8F8;}
	.st98{fill:#B1BDC4;}
	.st99{opacity:0.33;fill:#FFFFFF;stroke:#000000;stroke-miterlimit:10;}
</style>
<title>Untitled-1</title>
<path class="st0" d="M0.1,214.8V14.8C14.5,4.3,31.2,8.6,46.9,8.6c370-0.2,740-0.3,1110.1-0.2c77.4-0.2,154.8,0.4,232.2-0.4
	c3.9-0.4,7.8-1.2,11.5-2.4c5.9-0.7,11.8,0,17.5,1.8c52.4,2.1,104.8,0.2,157.2,1c12.6,0.2,25.9-2.9,37,6.3V247
	c-12.1,9.4-9.6,22.9-9.6,35.6c-0.1,54.7,0,109.4-0.1,164c0,8.6,1.1,17.3-1.1,25.6c-4.8,18.9-17.1,29.4-36.9,29.7
	c-20.6,0.4-31.8-10.6-34.5-30.6c-3-22.4-0.6-45-2.1-67.5c-0.5-7.8,1.9-19.9-10.3-19.8c-9.7,0.1-7.9,11-8.8,18
	c-2.2,17.4-4.4,34.3-24.8,40.9c-28.5,9.2-51.1-3.2-58-32.5c-8.3-34.9-20.8-46.5-57-47.3c-27.8-0.6-49.8-8.8-65.2-33.3
	c-7.4-11.7-18.4-21-30-28.8c-31.4-21-43.4-49.8-42.5-87.7c1.7-73.7,6.8-66-66-54.1c-24.3,4-48.3,10.1-72.6,14
	c-20.8,3.4-29.3,13.4-29.1,34.4c0.2,18.1-4.3,36.1-2.7,54.4c1.5,8.6-2,16.9-1.4,25.4c4.7,45.7-4.6,58.7-38.1,54.4
	c-19.9-2.6-30.9-13.1-33.1-33.1c-1.5-13.9-1-27.9-1.8-41.8c-0.9-15.5-7.1-29.5-23.4-29.5c-24.3,0-21.5-15.3-21.7-30.4
	c0.3,14.8-1.4,29.6-5,44c-10.9,42.5-50.3,61.2-90.4,41.9c-16.3-7.8-18-22.5-19.7-37.8c-1.8-15.7,1.1-31.5-7.2-47
	c-16.6-30.6-39.4-45-75.1-39.2c-23.2,3.8-47,3.1-70.6,3.7c-8.3,1.2-16.8,0.9-25.1,1.8c-31.6,3.5-44.5,19.5-40.5,50.7
	c1.2,9.4,4,18.5,3.9,28.1c-0.9,10.5-5.4,19-13.9,25.3c-5.7,3.4-11.7,6.1-17.7,9c-15.3,4.7-30.1,12.4-47,8.9
	c-17.2-6.8-11.8-27.9-25.2-41.8c-12.3,25.5-1.5,50.7-9,73.3c-7.5,11.5-17.4,17.4-31.5,13.4c-9.6-3.7-12.4-14.5-20.3-19.9
	c-9.1,0.5-8.5,8.4-10.7,13.9c-4.5,10.9-8.3,24.4-23.5,21.3c-13.4-2.7-15.7-15.9-18.1-27.7c-2.3-11,0.5-23.3-6.7-34.7
	c-11.8,10.7-6.5,23.4-8.3,34.3c-3,17.8-6.2,35.7-29.4,35s-25.8-19.2-27.2-36.9c-1.5-18.2-0.8-36.5-0.9-54.7
	c-0.1-28.7-20.9-24.8-38.8-24.9c-18.2-0.1-38.3-3.1-38.5,25.3c-0.1,26.8,0.7,53.7-0.8,80.5c-1.2,21.3-8.1,38.2-33.2,39.3
	c-22.4,1-34-11.3-36.1-39.6c-2-25.7,0.1-51.5-1.3-77.2c-0.4-6.2-0.5-14.5-8.8-14.9c-8.5-0.4-8.9,7.7-9.6,13.9c-0.9,7.5-1,15-2,22.4
	c-3.3,23.7-18.4,32.5-40.5,32.5c-22.3,0-38.5-9.4-39.8-32.9c-1.2-21.7-11.4-37.5-23.4-54.6C36.7,223.5,12.2,231.2,0.1,214.8z"/>
<path class="st1" d="M1051.5,266.4c0-25.7,0-51.5-0.1-77.2c0-13,3.4-23,18.4-25.6c50.5-8.7,101.1-16.8,151.3-27.3
	c20.3-4.2,24.5,2.7,23.8,20.5c-0.8,21.4,2.1,43.2-0.7,64.2c-4.1,30.8,9.4,50.9,32.9,66.9c19.6,13.4,37.8,27.5,47.3,50.7
	c6.3,15.2,21.8,9.7,34,11.5c19.7,2.9,39.5-6,59.2,13.6c14.8,14.8,22.1,26.7,20.4,45.7c-2.2,24.3,13.5,24.3,31,24.7
	c18.4,0.4,29.1-4.8,27.2-25.3c-0.6-6.4,0-12.9-0.1-19.3c-0.1-13.5-0.2-26.2,19-26.5c19.8-0.3,26.5,9.7,26.2,28
	c-0.4,24.6,0.3,49.3-0.2,74c-0.3,15.7,1.9,27.1,22,27.2c19,0,28.5-8.8,29-26.5c0.9-32.1,0.5-64.3,0.6-96.5s0.2-64.3,0-96.5
	c-0.1-13.9,0.5-26.6,19.5-25.8v451.3c-4.7,4.3-8.5,10.6-14.6,12.2c-62.4,16.2-123.9,36.3-188.9,40.7c-14.6-4.9-12.5-17.2-12.6-28.5
	c-0.1-17.7,0-35.3,0-53c-0.6-11.4,1.9-22.7,7.2-32.9c-5.2,9.7-7.8,20.6-7.3,31.6c-0.4,27,0.7,54-0.4,81
	c-28.6,20.7-59.5,30.6-94.7,19.8c-3.3-37.1-1.3-74.2-1.3-111.3c-0.8,35.6,0,71.2-0.5,106.8c-1.4,10.7-8.1,15.1-18.2,15.5
	c-10.9-1.8-16.7-9.8-19.6-19.1c-15.3-48.6-45.9-89.2-69.6-133.4c-2.1-4.4-5-8.4-7-12.9c-6.5-20.2-19.6-38.3-20.4-60.5
	c-0.9-12.2,1.1-23.5,10.9-32c23.1-15.5,44.6,7.6,73.4,3.5c-26-15.9-55.8-10.1-72.5-32.1c-5.9-9.7-8.3-21.4-3.2-30.5
	c17.9-32.5,5.3-59-13.7-85c-3-4.4-5.1-9.3-6.2-14.6c-2.5-14.7,0.3-30.7,12.4-37.2c34.3-18.4,33.4-47.5,29.1-78.8
	c-15.4-31.9-40.8-19.9-64.6-14.5c-2.9,0.5-5.9,0.5-8.8,0.2c-13-3.4-26.2-12.1-38.7,1.3C1069.9,242.9,1072.5,266.4,1051.5,266.4z"/>
<path class="st2" d="M1612.3,988.6v83.8c-11.1,6-23.2,3.1-34.8,3.1c-514.2,0.2-1028.5,0.2-1542.8,0c-11.6,0-23.6,3-34.8-3.1v-83.8
	c15.2-16.2,35.3-13.1,54.3-13.2c208.9-0.4,417.7,0.2,626.5-0.4c4.1-0.4,8.1-0.6,12.2-0.5c9.8,1.8,19.4,5.2,29.5,5.8
	c176.5-10.2,353.1-2.5,529.7-5c11.9-0.2,23.4,2.3,35.1,3.3c10.3,0.5,20.7,0.3,31.1,0.3c82-5.5,164.1-3.3,246.2-3.5
	C1581.7,975.4,1599.2,974.4,1612.3,988.6z"/>
<path class="st1" d="M0.1,214.8c60.1,0.1,81.5,19,83.3,77.9c0.7,23.3,12.2,25.6,30.6,25.6c17.6,0,29.6-3.3,28.1-24.5
	c-0.8-11.7,0-23.6,0.1-35.4c0.1-14.3,8.9-17.7,21.2-17.8c13.3-0.1,23.6,2.3,23.6,18.7c0,32.2,0.5,64.4,0,96.6
	c-0.2,16,2.6,26.8,22.5,26.8c19.4,0,23.3-9.9,23-26.4c-0.6-31.1,0.6-62.3-0.4-93.4c-0.6-19.8,4.7-29.6,26.9-29.2
	c93.2,2,74.3-11.6,76.5,72.6c0.3,11.8,0.1,23.6,0.6,35.4c0.4,8.8,5.3,13.7,14.3,14.1c10.3,0.5,16.6-4.1,16.9-14.6
	c0.5-16.1,0.7-32.2,0.6-48.3c0-13,5.2-20,19-20c13.6,0,19.6,6.2,19.5,19.5c-0.1,15,0,30,0.6,45c0.3,6.3,1.6,13.9,10.2,13.2
	c6.3-0.5,7.5-6.8,8.1-12.2c0.4-3.2,0.3-6.4,0.5-9.6c0.9-13.2-3.7-29.3,18.5-30.2c21.9-0.9,19.1,15,21.2,28.3c0.6,3.9,3.9,7.3,6,11
	c2.8,6.8-0.2,12.4-3.6,17.9c-21.8,36-21.5,38.5,9,68.7c9.8,9.6,22,17.6,23.2,33.1c0.4,5.8-2.7,10.1-7,13.7c-14.6,9.3-31,7.8-47,7.9
	c-95.6,0.2-191.2,0.6-286.8-0.3c-26.1-0.2-39.4,9.1-51,33.4c-17.9,37.3-22.7,74.8-21.5,115c1.5,49.4,0.6,98.8,0.3,148.2
	c-0.2,38.5-9.1,50.1-37.7,50.6c-28.9,0.5-35.9-9.2-36.4-49.8c0-24.2,0-48.5,0-72.8c0,23.2,0,46.5,0,69.7
	c-4.3,13.8,10.4,33.4-12.9,41.1L0.1,214.8z"/>
<path class="st3" d="M690.5,981.7c-11.8,11.2-26.5,6.8-40,6.8c-216.8,0.3-433.7,0.3-650.5,0.2V840.3c9.8-10.2,22.6-13.8,35.5-11
	c45.7,9.8,92.1-7.2,137.6,4.2c6.4,1.6,12.7-1,19.1-1.9c7.7-0.7,15.4-0.6,23.1,0.5c137.3,3.1,274.6,1.6,411.8,1
	c12-0.1,23.5,0.9,34.6,5.2c23.4,10,19.6,35.2,29.7,52.8c3.1,10.8,5,21.8,3.9,33.1C689.4,942.9,708.5,963.9,690.5,981.7z"/>
<path class="st2" d="M193.7,840.2c-9.6,5.2-19.9,7.9-30.6,6.2c-54.1-8.7-109,2.9-163.1-6.1v-25.8c11.5-13.7,4.4-30.1,6.5-45.1
	c4.3-3.8,8.6-3.8,12.9,0c4.5,16.7-13.1,43.4,23,45.5c25.8,1.5,36.4-5.7,35.6-33.7c-2.3-73.9-5.7-148.1-0.9-221.7
	c2-30.3,22.2-60.1,37-88.7c4.7-9,20-4.5,30.5-4.5c105.1-0.2,210.2,0,315.3-0.2c12.5,0,26,3.8,36.8-6.5c10.9-2.5,15.7,4.3,19.5,12.7
	c5.2,19-7.7,33.2-13,49.4c-9.8,14.9-12.5,35.2-32.1,42.8c-16.5,6.5-33.7,5.1-50.8,5.1c-92.1-0.1-184.1-0.1-276.2,0.1
	c-15.2,0-35.7-6-43.1,12.4c-8.4,20.9-7.3,44.4,0,66c4,11.9,17.2,11.5,27.8,11.5c74.6-0.2,149.2,3.1,223.9,1.6
	c35.3-0.7,72.5-10.2,107.5,5.3c3.1,2,5.3,5.2,6.3,8.8c-5.3,21.7-23.5,19.2-38.9,19.3c-96.2,0.5-192.4,2.6-288.6,3.5
	c-42.2,0.4-42.5,0.7-42.7,43.6c-0.1,13.4-0.8,27,2.6,45.1c6.7-17,3.7-29.9,5.8-42.3c4.3-25.7,19.7-41.6,41.6-40.8
	c25,0.9,37.4,17.2,38.2,39.6c1,29.6,3.6,58.6,12.1,87C196.4,833.7,195.5,837.1,193.7,840.2z"/>
<path class="st3" d="M1612.3,988.6l-297-0.2c-1.9-2.5-2.8-5.6-2.6-8.7c1.9-8.2,7.1-13.7,14.4-17.3c13.9-3.7,27.9-7,42.2-16
	c-4.6,2-9.6,2.9-14.6,2.6c-13.8-3.8-28.5-4.1-41.4-11.3c-17.2-28.4-36.3-56.4-19.4-92c11.6-11.7,26.6-13.9,41.7-13.4
	c77.3,2.7,154.6,0.4,231.8,1.2c16.2,0.2,32.5,0,44.8,13.1L1612.3,988.6z"/>
<path class="st4" d="M1612.3,846.8c-93.3-0.8-186.7-2-280-2c-12,0-26.2-1.7-36.4,9c-24.2-8.9-21.8-28.3-19-47.9
	c8.1-19.3,21.1-8,32.8-5.2c24.5,1.1,48.9,5.7,73.1-1.3c7.2-4.5,6.6-12.6,9.3-19.2c3.1-7.6,6.5-16.8,18-9.2
	c8.3,18.2,22.9,24.2,42.3,28c39.6,7.7,78.5-3.4,117.8-0.4c13.9,1.1,15.3-11.7,16.7-22.7c1.9-14.3-1.3-30.6,14.1-40.2
	c16,9,5.5,24,7.9,36.1s-3,24.7,3.4,36.3L1612.3,846.8z"/>
<path class="st5" d="M0.1,1072.5h1612.3c1,12.7-8.8,6.1-12.9,6.1c-528.9,0.3-1057.7,0.3-1586.6,0C8.9,1078.6-0.9,1085.2,0.1,1072.5z
	"/>
<path class="st6" d="M1612.3,808.1c-16.2-21.5,3.3-49.5-12.9-71c-53.9,13-108.3,24.1-162.5,36.1c-10.6,2.3-21.3,2.4-31-3.9
	c-14.3,9.6,3,29.7-12.9,38.7c-23-21.8-51.3-21.8-90.3,0c-7.9,2.2-9-15.9-19.3-6.5c-12.5-6-15-14.5-6.5-25.8l19.3-6.5
	c2.2-4.2,4.3-4.2,6.5,0L1393,750c4.9-6.8,14.3,0,19.4-6.4l199.9-45.2L1612.3,808.1z"/>
<path class="st7" d="M0.1,8.4C5.9-5,17.5,2.4,25.9,2.3c378.3-0.5,756.7-0.6,1135-0.4c0.5,4.9-1.6,8-6.3,9.3
	C777,12.1,399.4,11.3,21.9,11.5C14.6,11.5,6.8,13.1,0.1,8.4z"/>
<path class="st8" d="M0.1,8.4l1160.9-0.1l2.4,3.3l-2.5,3.2H0.1V8.4z"/>
<path class="st9" d="M1160.9,8.3c0-2.1,0-4.2,0-6.4h238.6c4,2.1,4,4.2,0,6.3v0.1c-79.5,5.2-159.2,5.2-238.6,0L1160.9,8.3z"/>
<path class="st7" d="M1399.5,8.3c0-2.1,0-4.2,0-6.4c65.6,0,131.1-0.2,196.7,0.5c4.8,0,15.6-8.3,16.1,6
	c-66.5,5.2-133.3,5.2-199.9,0.1L1399.5,8.3z"/>
<path class="st10" d="M1412.5,8.4l199.9-0.1v6.4c-55.4,0-110.9,0.1-166.4-0.1C1434.6,14.6,1422.3,17.8,1412.5,8.4z"/>
<path class="st1" d="M670.8,162.8c38.9-2,77.8-4,116.6-6c14.5-0.8,18,10.5,26.7,18.8c29.6,28.2,22.7,62.1,24.8,95.1
	c0.7,10.7,7.8,14.5,17.4,14.7c16.1,0.2,32.1,0.1,48.2,0c14.3-0.1,17.8-9,17.7-21.3c-0.2-29,18.8-52.3,24.7-79.8l2.8,44.2
	c18.4,1,5.1-20,14.6-21.2c35.4,28.2,38.3,65.4,36.3,105.5c-1.3,26.4,22.6,15.6,36.3,18.5c19.1,3.9,13.3-11.2,14.3-20.6
	c0.9-8.8-2-16.9-6.6-24.4c13.7-8.6,24-20.9,35.1-32.3c8.3-8.6,17.8-16.2,31-11.3c11.3,4.2,10.9,14.4,10.8,24.2
	c-0.1,7.8,3.9,14.3,7.3,20.9c2.6,5.8,5,11.8,7,17.9c2.3,11.2,1,21.8-6.1,31.2c-6.2,7-15.8,11.2-17.9,21.7
	c-34.6,35.1-64.8,75-109.9,98.6c-95,2.4-190,7.2-284.8-2.4c-24.4-20.1,6.8-25,10.3-37.5c7.4-7.8,17.5-11.9,25.6-18.8
	c4.8-4.1,10.9-9,5.8-15.9c-6.2-8.3-13.4-4.7-18.5,1.7c-12,15.1-24.5,29.1-43.7,35.7c-32.2,11-43.6,3.9-48.3-31.1
	c1-13.5-1.6-26.4-6.6-38.9c-3.8-8.3-6.6-16.9-10.1-25.4c-0.9-3.1-1.5-6.2-1.7-9.4c-0.6-11.6,2.8-23,9.9-32.2
	c4.2-4.8,9.6-8.6,15.6-10.8c35.8-13.7,27.1-46.7,31.8-73.8C691.3,182.3,671.3,177,670.8,162.8z"/>
<path class="st11" d="M639.2,323.6l11.1,20.8c-3.2,14.7,3.5,29.2,1.1,43.9c0,6.6,0,13.2,0,19.8c0.8,18.5-5.9,35.5-10.9,52.8
	c-8.3,16.2-8.4,34.6-13.4,51.7c-4.7,9.2-4.9,20.4-13,28c-5.8,4.5-12.9,6.9-20.2,6.7c-19.6-1.8-40.9-1.5-39.2-30.6
	c0.5-0.9,1.1-1.7,1.8-2.5c28.2-25.4,28.2-25.4,0.2-50c-16.4-21.5-20.3-42.8-1.7-65.7c9.8-12.1,12.7-26.3,3.4-40.8
	c-0.2-2.1-0.7-4.8,0.6-6.1c20.1-20.4,26.9-44.5,21.4-72.4l13.2-6c10.5,1.6,20.3,4.3,24.2,16C621.7,302.6,627.7,314.8,639.2,323.6z"
	/>
<path class="st12" d="M510.3,472.7l-13.4-13.1c-10.3-19.4-30.6-28.8-44.7-44.9c-20.8-24-21.4-41.6,4.2-60.3
	c5.9-4.3,10.1-10.9,15.1-16.4l24.8-14.2c2.3-2.1,5.1-3.4,8.2-3.7c3.1,0.2,6.1,1.2,8.8,2.8c10.5,12.8,26.8,22,26.3,41.7
	c-2.5,10-10.2,15-18.9,18.9c-7.8,1.2-15.8,7.1-22.1,1.5c8.8,5.8,15.2,16.9,24.1,25.6c11.3,16.4,23.5,32,35,48.2
	c-1.6,14-14.8,19.3-21.8,29.3c-3.8,2.1-8.4,2.5-12.5,1.2C515.9,486.1,515.5,477.5,510.3,472.7z"/>
<path class="st13" d="M612.3,292.4l-18.7-19.3l12.8-18.3c1.7-44.9,46.5-44,70.4-65.2c4.8-4.3,14.4-0.8,19.2,6.4
	c1.9,25.3-0.1,49.4-11.7,73.1c-6.7,13.8-13.5,17.3-26.4,10.3c-7.6-4.3-10.7,0-12.5,6.6l-7,31.8C622.1,317.2,614.4,307.7,612.3,292.4
	z"/>
<path class="st14" d="M696,196c-12-0.5-25-1.5-31.9,10.3c-7.8,13.5-10.7,31.2-33.5,16.6c-6.7-4.3-9.5,5.2-8,12.3
	c2.8,13.4-7,16.2-16.3,19.5c-27.5-65.7-9.2-91.9,64.4-92C680.6,172.8,706.8,170.3,696,196z"/>
<path class="st15" d="M535.2,363.1c-6.5-14.4-24.1-21.1-26.2-38.5c4.2-9,16.6-12.6,15.9-24.7c2.3-4.3,6.6-5.6,10.7-7.3
	c14.2-6.9,28.4-13.8,44.8-13.3c25.3,37.7,24.3,41.6-19.3,77.5C556.5,374.9,548.1,378,535.2,363.1z"/>
<path class="st16" d="M535.7,292.5l-6.4,6.9c-2.7,14.6-15.5,18.5-26.2,24.8l-6.8-0.4c-10.4-21.3-4.9-43.9-5.6-66
	c-0.4-11.9,6.6-16.8,18.2-17c13-0.3,19.7,4.9,20.2,18.5C529.3,270.6,525.9,283,535.7,292.5z"/>
<path class="st17" d="M1121.7,293.2c-7.2-7-10.6-15.6-11.1-25.6c-0.3-6.4,8-15.5-3.9-18.6c-8.2-2.1-14.6,3.9-18.3,10.2
	c-10,16.9-23.6,27-43.8,27.1l6.9-20c9.7-12.3,9.5-30.9,25.2-39.3c15.1,0.7,30.1,1.2,45.2,1.1l6.6-1
	C1148.4,251.5,1132.8,272.1,1121.7,293.2z"/>
<path class="st18" d="M1160.9,8.4h238.6c-9.8,9.4-22.1,6.3-33.6,6.3c-68.3,0.2-136.7,0.1-205,0.1
	C1160.9,12.7,1160.9,10.6,1160.9,8.4z"/>
<path class="st19" d="M1110,352.1c-7.7-15.6,6.4-12.9,13.5-16c22.7-5.2,29,12.4,37.4,27c6.9,9.5,14.6,18.5,20.5,28.6
	c12.5,21.3,26,42.4,3.7,66.8c-8,8.8-4.5,22.6-3.6,34.4c8.4,10.6,7.9,20.9-1,31c-5.8,10.4-7,21.7-6.7,33.3c-2.1,1.7-4.6,2.9-7.2,3.6
	c-9.4-1.5-19,0.5-28.5-1c-12.4-7-21.2-18.2-31.8-27.3c-1.6-2.5-2.9-5.2-3.7-8c-3.3-35.6,10.7-68.3,17.6-102.2
	c1.4-7.2,3.2-14.1,3-21.5C1130.8,381.4,1125.7,365.3,1110,352.1z"/>
<path class="st20" d="M1277,775.8l6.5,25.8c0,18.1,4.3,36,12.4,52.1c2.4,29.7,10.4,57.7,25.8,83.4c1.9,2.4,2,5.8,0.3,8.3
	c-2.4,2-5.2,3.4-8.2,4.1c-4.6,0.6-9.4-0.2-13.5-2.4c-21.6-20.2-30.9-48.6-48.4-71.7c-1.6-2.9-2.7-6-3.3-9.3
	c-6.3-29-16.4-57.2-14-87.7c1.1-14-8.8-23.4-16.2-33.7c-14.2-19.9-32.6-36.9-42.7-59.5c-14.4-32.4-5.1-56.8,23.4-64.2
	C1229.8,670.4,1263.3,718.1,1277,775.8z"/>
<path class="st21" d="M1167.3,556.4l6.4,0.9c3.5,20.1,20.4,35.5,19.9,56.9c-18.7,20.9-33.6,46-62.1,56.1c-8.7,1.8-17.5,2.8-26.3,4.1
	c-11.4,1.8-21.5-4-32.5-4.9c-10.7-0.2-20.1-2.7-25.8-12.8c-2.3-40,19.3-66.1,50.7-86.4c14.9-1.9,29-7.5,43.6-10.8
	C1149.8,557.2,1158.2,553.8,1167.3,556.4z"/>
<path class="st22" d="M1128.7,666.1c21.6-17.4,40.4-38.3,65-51.9l5.6,7c-23.2,21.1-26,47.8-6.8,72.6c11,14.3,22.7,28.2,34.7,41.7
	c7.2,8.1,16,16.8,15.6,27.2c-1.3,37.7,11.6,73.3,14.3,110.3c-21.5,0.9-26.1-16.4-33.4-30.9c-4-10.5-3.4-22-7.1-32.6
	c-1.8-6.1-1.3-12.3-1.1-18.5c-12.3-35.7-42-58.1-65.3-85.5C1140.4,694,1123.1,686.1,1128.7,666.1z"/>
<path class="st23" d="M1160.9,363.2l-37.4-27c2-10.3,3.9-20.6,5.9-30.8c-0.9-43.4,31.7-71.5,75.2-64.8c1.9,13.8,4.7,27.4,5.5,41.3
	c1,17.3,0.5,36.9-20.4,41.4C1166,328.3,1162.4,344.1,1160.9,363.2z"/>
<path class="st24" d="M1204.5,240.6c-29.1,16.9-68.8,21.5-75.2,64.8c-2.5-4-5.1-8.1-7.6-12.1c2.3-22,4.5-44,6.8-66
	C1163.4,206,1183.6,209.6,1204.5,240.6z"/>
<path class="st25" d="M1180.4,523.9c0.3-10.3,0.7-20.7,1-31c20.5,4.8,39.4,14.9,61.9,12.8c14-1.3,21.2,10.7,19,23.8
	c-2.6,15.6-15.3,16.6-27.4,11.7C1217.2,533.9,1199.9,525.6,1180.4,523.9z"/>
<path class="st26" d="M1122,228.2c-15.4,12.6-30.7,20.7-45.2-1.1C1092.3,207.4,1107.3,211.4,1122,228.2z"/>
<path class="st27" d="M1302.8,769.3h-6.5c0-40.1,0-80.3,0-120.5h6.5V769.3z"/>
<path class="st28" d="M1393.1,659.7c3.3-35.6,10.5-41.5,44.6-31.4c-19.1,6-33.2,14-38.1,31.4
	C1397.4,663.7,1395.2,663.7,1393.1,659.7z"/>
<path class="st29" d="M1393.1,659.7h6.4c0,19.7-0.1,39.5,0.1,59.2c0.1,10.3-1.3,21.6,12.8,24.6c-5,6.5-12.2,6.4-19.4,6.4
	C1393.1,719.9,1393.1,689.8,1393.1,659.7z"/>
<path class="st27" d="M1337.9,626.5c-4.1,2.4-6.5,4.8-9,5c-4.4,0.3-8.5-2-7-7.2c0.5-1.6,5.3-2.8,8.1-2.6
	C1332.2,621.8,1334.3,624.2,1337.9,626.5z"/>
<path class="st3" d="M1231.7,840.5l25.4,32.5l0.1-0.2c13.9,21.9,26.8,44.3,34.6,69.3c3.5,11,1.6,22.6,4.1,33.7
	c-0.3,5.2-2.7,9.3-6.2,13c-172.7,0-345.5,0.5-518.2-0.8c-18.6-0.1-37.2,12.5-55.7,0.6c-0.2-19.7,19.7-15.1,29.1-23.4
	c8.4-7.3,21.1-8.8,30.7-15.6c7.8-4.9,17.8-6.6,25.2-17.8c-21.6,3.5-41.2,4.3-59.5-5c-22.2-5.3-26.5-24.9-33.7-42.2
	c-3.1-13.5-3.2-26.6,4.8-38.8c2.7-3,6-5.5,9.6-7.2c13.2-6.1,27.3-4.8,41.2-4.9c143.7-1.1,287.5,1.8,431.2-1.5
	C1207.5,831.8,1220.4,833,1231.7,840.5z"/>
<path class="st30" d="M690.5,981.7c0.5-19.4-10.1-37.7-5.9-57.5c16.7-3.2,29.2,4.4,40.1,15.9c6.1,12.4,0.2,22.9-5,33.7
	c-5.8,8-14.5,8.5-23.3,8.5C694.5,982.2,692.5,982,690.5,981.7z"/>
<path class="st31" d="M696.5,982.3l19.6-11.3c5.9-9.6,15.3-15,25-20c13.8-1.5,28.5-8.4,40.1,5.7c-19.7,14.9-43.9,20.6-65.3,31.8
	C708.7,988.5,701.5,988.9,696.5,982.3z"/>
<path class="st32" d="M1289.8,988.7l-0.1-11.4c2.5-5.1,6.9-6.6,12.1-6.8c7.2,1,12.3,4.6,13.8,12.1c0,1.9-0.1,3.9-0.2,5.8
	L1289.8,988.7z"/>
<path class="st33" d="M19.4,769.4H6.5c0-36.4,0-72.7,0-109.1l12.9,0.1V769.4z"/>
<path class="st33" d="M22.7,642.8c8.7-8.7,17.6-12.3,21.4-5.7c4.4,7.7-5.2,8.5-10.9,9C30.6,646.4,27.8,644.5,22.7,642.8z"/>
<path class="st4" d="M664.8,846.5c-128,0.1-256.1,0.6-384.1-0.2c-22.6-0.1-46.3,4.7-67.9-6.8c-11-18.7,0.6-31,12.2-43.2
	c7.9-5,15-12,25.4-11.7c16,11.2,30.3,17.4,33.2-11c2.2-2.1,4.9-3.7,7.7-4.8c6-1.6,12.2-1.9,18.3-0.7c14.5,7.2,32.4,3.2,45.2,19.7
	c11,14.3,11.9-11.7,21.8-11.3c11.3-5.6,23-5.5,35-2.7c13.3,3.8,25,12,33.1,23.2c28.3,12.3,58.6,6.2,87.6,6.3c20.8,0.1,42.2-2,63.3-2
	c14.5,3.2,29.1,4.7,43.9,1.6c9.1,0.5,17.2,3.4,24,9.5C672.4,823.4,675.8,834.7,664.8,846.5z"/>
<path class="st34" d="M664.8,846.5c0.1-11.2-1.3-22.1-7.1-32c-12.3-10.1-16.5-23.1-16-38.8c0.5-12.3,2.1-25.3-7.5-35.7
	c-14.1-18.6-27.5-37.9-45-53.6c-5.5-5-11.5-9.6-15.5-16c-3.2-5.4-5-11.2-4.5-17.6c0.8-4.6,2.9-8.8,6-12.2
	c19.7-15.7,36.9-34.4,58.6-47.8c3.2,0.2,6.2,1.7,8.2,4.2c3.4,6.1,3.6,12.4,1.6,18.9c-31,47.2-31.6,47.9,11.4,89.2
	c18.4,17.7,29.7,37.1,26.7,62.2c-5.2,43.4,10.9,83.8,15.4,125.7c-4.7,2.8-9.3,2.7-13.8-0.6C671.5,879.4,675,860.2,664.8,846.5z"/>
<path class="st35" d="M683.4,892.4l13-0.8c5.1-6.5,10.9-11.1,19.6-6.3c12.9,8.8,8.3,34.3,31.8,33c2.6,4.3,1,8.1-1.4,11.8
	c-7,6.2-11,17.6-23.8,13.5c-12.1-7.5-29.4-4.8-38-19.4C684.2,913.6,683.8,903,683.4,892.4z"/>
<path class="st36" d="M232.2,801.2c-11.3,10.4-16.6,23.8-19.4,38.4l-19,0.6c-0.3-2.2-0.5-4.5-0.8-6.7l0.3-4.5
	c-0.8-18.6,0.9-36.8,7.2-54.5c5.5-8.1,10.4-16.9,20.7-19.9c16,5.6,18.8,18.2,17.5,33C237.5,792.5,235.2,797.1,232.2,801.2z"/>
<path class="st37" d="M464.4,672.6c-115.7,0-231.4-0.5-347.1,0.4c-24.1,0.2-34.1-5.4-34-32.1c0.1-84.4-1-84.4,84.1-84.4h308.5
	c12.6,13.1,4.3,28.5,3.8,42.6c-0.6,15.9-1.7,31.7,0,47.6C479.5,658.3,476.9,668.4,464.4,672.6z"/>
<path class="st37" d="M193,833.5c-18.1-25.8-20.7-54.9-18.9-85.2c1.1-19-4.2-36.1-26.8-35.7c-21.3,0.4-32.7,13.2-31.2,36.1
	c0.9,13.9,0.4,27.9,0,41.8c-0.3,9.7-0.4,20.8-15,19.1c-11-1.3-17.1-7.5-17-19.4c0.2-27.9,0.2-55.8,0-83.7
	c-0.2-15.1,7.1-21,21.7-20.9c55.4,0.1,110.7,0.5,166.1-0.5c64.2-1.2,128.4-3.9,192.5-5.9c14.6,18.2,5.8,35.3-2.5,52.5
	c-10.5,9.4-22.3,9.1-34.6,4.7c-14.6-11.1-29.2-20.8-45-1.6c-11.8,6.4-24.1,6.8-36.7,3.1c-21.2-23.6-44-11.7-66.6-2.8
	c-14.8,0.8-25.6-9.7-38.5-14c-7-1.5-11.6,1.6-14.9,7.6c-10.6,16.2-12.5,36.2-22.9,52.5c-6.2,17.1-3.5,35.5-8.7,52.7L193,833.5z"/>
<path class="st38" d="M471.2,646.8c-13.2-30.9,1.6-60.2,4.8-90.2c4.8-13.7,9.3-27.5,20.1-38.1c4.9-0.6,9,1.2,12.5,4.5
	c3.2,3.4,5.2,7.7,5.7,12.4c0.1,14.9-3.6,29.5-8.2,43.3c-5,15.2-5.1,27.2,4.8,41c13.1,18.2,11.2,33.9-14.7,38.9
	C485.5,659.3,477.9,654,471.2,646.8z"/>
<path class="st34" d="M471.2,646.8l25.6,6.4c7.4-5.1,12.5-3.1,15.6,5c-10.3,29.4-13.1,62.6-42,82.6c-7.1,0-14.3,0-12.6-10.5
	c2.2-17.1,4.4-34.1,6.5-51.2c0.1-2.2,0.1-4.3,0.2-6.5L471.2,646.8z"/>
<path class="st39" d="M502.8,524.5l-6.8-6.1c2.4-16,15.2-28.8,14.3-45.8c7.5,1,11.6,5.2,12.4,12.6
	C530.6,505.7,530.2,522,502.8,524.5z"/>
<path class="st40" d="M1354,942.4c10.8-3,21.4-9.3,34.9-1.8c-15.7,21.8-37,29.4-62.1,29.2c-7.1-14.4,0.8-22.1,12.7-27.9
	C1344.4,940.2,1349.3,939.9,1354,942.4z"/>
<path class="st41" d="M1340.2,944.5c-4.5,8.4-8.9,16.9-13.4,25.3l-11.3,12.8l-12.9-6.9c-10.9-16.5,3.8-23.1,12.5-31.9l7.6-0.7
	C1329,938.5,1334.9,938.1,1340.2,944.5z"/>
<path class="st42" d="M1340.2,944.5l-17.4-1.4c-0.5-1.9-0.8-3.9-1.1-5.8c12.6-9.5,22,0.2,32.2,5.3L1340.2,944.5z"/>
<path class="st43" d="M1406,769.4c55.5-12.7,111-25.7,166.7-38c9.1-2,19.2-2.3,26.8,5.8c0,5.3,0,10.7,0,16c0,56-0.2,53-54.1,56.4
	c-34.7,2.3-69.5,2.4-104.2,0.3C1409.6,807.9,1402.5,796.2,1406,769.4z"/>
<path class="st44" d="M1302.8,808.1c-0.9-13.3,6.2-18.8,18.6-20.6s25.2-3.8,37.1-8c28.3-9.9,37.3,1.7,34.5,28.6
	C1363,819.5,1332.9,815.7,1302.8,808.1z"/>
<path class="st37" d="M709.3,446.9l303.1,0.1c11.9,5,17.3,13.5,14.5,26.5c-5.1,5.2-17.7,5.1-12.5,17.5c-0.7,1.8-1.8,3.4-3.2,4.6
	c3.8,1.5,5.1-1.4,6.8-3.8c1.2-5.7,1.8-11.6,7.8-14.7c32.3,3.9,41.2,32,56.2,53.9c1.1,4.8,0.7,9.9-0.9,14.5
	c-13.5,20.5-23.6,42.2-28.1,66.8c-2,11-4.2,23.3-16.3,29.3c-3.9-0.9-7.6-3.2-11.9-2.2c2-0.4,4.1-0.4,6.1,0.1
	c4.2,2.8,5.1,6.7,4.6,11.1c-1,2.9-2.8,5.4-5.2,7.3c-8.7,6.6-20.9,3.3-30.3,10.3c9.4,8.7,25.4,6.4,31.2,19.7
	c4.2,11.4,4.4,22-5.8,30.6c-19.3-3.9-36.9-1.5-51.2,13.6c-22,5.4-43.9,9.2-63.8-6.2c-4-6.3,0.8-9.4,4.7-12.8
	c-3.7,2.2-6.5,5.4-9.3,8.6c-11.4,8.2-23.8,7.3-36.5,4.2c-11.6-3.3-19.7-12.6-30.3-17.6c-8.4-3.3-15.4,1.4-22.8,4
	c-13.2,4.9-35.7,5.8-11.4,26.6c7.8,8,5.8,17.4,3.8,26.6c-0.5,1.5,0.2,3.2,1.8,3.7c0,0,0,0,0,0c6.5-11.5,15.5-19.2,28.2-22.1
	c3-0.1,5.9,0.7,8.5,2.3c21.9,31.2,24.7,31.5,47.9,5.2c5.9-3,11.2-1.9,16,2.5c16.3,21.5,37.4,16.9,58.8,10.5
	c8.5-1.4,17.1-1.6,25.1,1.2c22.3,7.8,40.5,5.6,55.3-15.4c6.1-8.5,16.1-19.8,27.5-3.6c7.9,21.3,9,42-5.5,61.4
	c-13.8,11-30.2,9.9-46.2,9.9c-83.8,0.2-167.7,0.7-251.5-0.3c-24.4-0.3-44.4,5-58.5,25.8l-0.6-0.1c-27.6-14-17.8-36.9-13.8-58.3
	c4.9-11.1,15-14.7,25.8-16c14.2-1.7,21-9.4,20.6-23.3c-0.3-11.2,3.8-26.9-11.7-29.3c-18.3-2.8-13.7,14.6-16.1,24.9
	c-2.3,10-0.8,21.9-13.8,26.4c-6.9-2.1-11.7-7.6-11.8-13.8c-1-32.9-19.1-60.7-26.5-91.6c-4.1-65.2-8.2-130.3,0.6-195.5
	C675.9,451.2,688,441,709.3,446.9z"/>
<path class="st23" d="M1076.6,531.1c-22-12.6-28.8-39.9-50.8-52.6c-1.7-1-2.4-2.2-2.2-3.6c0.3-1.4,0.7-2.1,1.2-2.2l-12.4-25.8
	c27.9-36.4,63.2-65.1,97.6-94.8c34.8,5.5,39.8,18.8,18.6,49.6c-4.6,21.7-25.2,27.8-39.1,40.5c-29.4,22.4,0.2,37.2,7.1,54.8
	c3.7,7.3,6,14.9,4,23.3C1095.7,530.6,1088.4,535.9,1076.6,531.1z"/>
<path class="st45" d="M645.3,408.5l-0.2-19.1c3.7-4.3,7.6-4.4,11.8-0.9c-2.1,34.5,16.3,29.9,38.5,21.2c10.4-4,20.7-8.2,26.2-17.5
	c9.2-15.5,14.5-35.4,39.3-27.7c10.4,3.2,16.8,12.7,16.4,21.9c-1,21.6-22.7,22.8-36.3,31.9c-1.9,1.1-3.8,2.1-5.7,2.9
	c-9.9,6.1-20.2,11.4-30.3,17C663.9,461.4,647.7,453.4,645.3,408.5z"/>
<path class="st46" d="M645.3,408.5c14.4,38.3,19.1,40,59.8,21.1c9.7-4.5,19.2-9.3,30.3-8.5c-5.3,12-18.1,16.5-26.1,25.7l-32.1,19.4
	c-25.2,20.6-32.5,19.5-45.4-6.7L645.3,408.5z"/>
<path class="st47" d="M657,388.6l-11.8,0.8c1.5-15-4.6-30.9,5.2-45C655.3,358.7,660.3,373,657,388.6z"/>
<path class="st48" d="M612.3,292.4c7.1,10.1,14.9,19.5,26.1,25.3c0.3,1.9,0.6,3.9,0.8,5.9C621,321.2,608.6,313.8,612.3,292.4z"/>
<path class="st49" d="M645.4,285.9c-3.2-2.7-5.8-6.4-2.3-9.6c5.6-5.2,10.6-1.6,14.8,3L645.4,285.9z"/>
<path class="st50" d="M509.6,659.7l-12.9-6.5c3.7-7,23.5-8.4,11.4-20.1c-36-35.2-6.8-67.8,1.3-101.4c14.4-9.6,28.4-3.2,42.2,1.5
	s27.3,11.6,42.3,4.4l17.8-0.4c21,14,32.5,31.4,21,57.3c-6.6,28.3-34.4,35.3-52.3,52.2c-6.4-4.1-9.3-10.5-11.8-17.9
	c0.6,8.4-2.7,15-6.2,21.5c-3.8,6.8-6.6,14.2-13.2,19.1c-2.8,1.8-5.9,3-9.2,3.6C527.7,673.8,516.7,671.3,509.6,659.7z"/>
<path class="st43" d="M631.9,459.5c12.5,19.6,29.3,11,45.4,6.7c-0.2,66.8-0.4,133.6-0.7,200.4c-28.7-5.5-38-25.4-38.3-51.9l0.2-19.5
	c-3.3-28.8-17.9-55.1-19.7-84.3C618.4,492.6,620.7,474.9,631.9,459.5z"/>
<path class="st51" d="M535.2,363.1c10.5,5.3,19,2.4,26-6.4c21.8,19,22.5,22,6,36.7c-4.8,4.3-2.1,6.9-0.5,10.6s2.7,7.7,4,11.6
	c-48.5,5-1.2,30.9-9.7,44.7c-2.2,2.4-4.4,2.3-6.6,0c-15.1-13.6-31.6-26-38.9-46.2c-6.5-12.9-10.9-25.7,0.8-38.2L535.2,363.1z"/>
<path class="st52" d="M554.4,460.3h6.6c9.2,10.6,34.2-0.1,32.8,25.8c-1.2,21.9-14.4,28.5-32.4,31.5c-15.1-5.4-30.7-10.5-26-32
	C525.5,464.9,543.6,465.4,554.4,460.3z"/>
<path class="st53" d="M535.4,485.5l26,32c0.4,23.8,18.9,18,32.6,20c-29.2,13.2-56.9,4.6-84.5-5.9l-6.7-7.1
	c15.5-8.6,13.3-26.1,19.9-39.3L535.4,485.5z"/>
<path class="st54" d="M618.8,510.9c19.6,25,28,52.7,19.7,84.3c-1.9-0.2-3.8-0.4-5.7-0.7c-1.1-21.3-16.6-37.2-21-57.3
	C613.2,528.2,611.2,518.3,618.8,510.9z"/>
<path class="st55" d="M516.2,375.9c-0.2,12.7-0.5,25.5-0.8,38.2C507.9,401.2,472.7,387.8,516.2,375.9z"/>
<path class="st56" d="M503.1,324.2c5.8-11.3,14.8-19.4,26.2-24.8c10.4,22.2-4.3,24.2-20.3,25.1C507,324.5,505,324.4,503.1,324.2z"/>
<path class="st57" d="M1084.2,434.6l44.4-32.9c12.3,23.2-6.2,44-7.5,66.4c-1,17.4-6.3,38.5-12.2,57.2c-7,2-9.6-2.6-12-7.7l-7.8-18.4
	C1083,478,1069,457.4,1084.2,434.6z"/>
<path class="st58" d="M1143.2,561.7c-10.3,13.8-22,23.3-40.3,14.2c-12.2-4.3-18.1-13.1-18.1-25.9c2.8-13.1,10.5-19.8,24.3-18.6
	c19.5-3.4,24.5,12.8,33,24.3c1.1,1,1.7,2.4,1.7,3.8C1143.7,561,1143.5,561.7,1143.2,561.7z"/>
<path class="st59" d="M1109.1,531.3l-19.3,18.3c-7.1,3.8-10.4-0.3-12.9-6.2c-0.1-4.1-0.2-8.3-0.3-12.4l20.2-13.5l12,7.7
	C1109,527.3,1109.1,529.3,1109.1,531.3z"/>
<path class="st60" d="M1143.2,561.7c-0.5-2-0.9-4-1.1-6c8.6-7.5,17-7.3,25.1,0.7L1143.2,561.7z"/>
<path class="st22" d="M1284,943.3l-26.8-70.6c21.8,19.3,32.3,45.9,45.6,70.8C1296.5,949.1,1290.2,948.7,1284,943.3z"/>
<path class="st61" d="M1284,943.3l18.7,0.2l12.4,0.2l-12.5,32c-4.3,0.5-8.7,1.1-13,1.6C1280.9,967.1,1283.1,955.1,1284,943.3z"/>
<path class="st43" d="M1070.6,808c-0.1-21.6-0.2-43.2-0.3-64.9c-7-35.8,14.5-56.9,39.1-76.5c6.3-4.1,12.7-4.1,19.3-0.6
	c26.8,29.9,53.4,60,80.5,89.6c8.8,9.6,17.8,18.4,15.6,32.9c-23,24.2-56.8,18.7-84.2,30.5c-15.4,2.5-31,2-46.6,1.9
	C1084.3,820.9,1072.1,823.6,1070.6,808z"/>
<path class="st62" d="M1109.4,666.7l-39.1,76.5c-5,6.7-11.2,12.8-14.9,20.2c-12.2,24.7-30.1,29.7-54.4,18.6
	c-10.5-4.9-22.2-6.9-33.8-5.8c-20.9,2.9-40.2-0.7-57.4-13.6l-13.4-5.6c-18.9,11.4-35.8,6.7-51.5-6.5l-7.2,0.3
	c-0.9-1.2-1.8-2.4-2.7-3.6c-1.4-4.3-1.1-9.1,1.1-13.1c7.9-8.1,13-21.3,28.4-16.3l44.8,0.3v-0.1c22.8,12.4,47.5,3.7,71.1,6.4
	c10.8-7,21.6,0,32.4,0.2c10,0.5,16.1-5.3,19.1-13.6c8.4-23.1,27.1-36.7,45.3-50.8L1109.4,666.7z"/>
<path class="st63" d="M1076.9,543.5l12.9,6.2l13.1,26.2c-27,19.3-42.3,46.5-51.7,77.5c-6.1,5.2-12.2,5.5-18.3,0l-0.9-13l0,0
	c9.6-14.8,9.8-32.1,13.8-48.5C1050.5,572.6,1054.4,551.8,1076.9,543.5z"/>
<path class="st64" d="M1032.9,653.4h18.3c7.2,7.9,17,5.7,25.9,6.8c-15.5,30.7-37.9,55.5-64.4,77c-4.6-8.7-1.2-14.7,6.3-19.3
	c9.2-9.3,5.6-21.3,6.7-32.2c-4.6-12-4-23,6.2-32.2L1032.9,653.4z"/>
<path class="st4" d="M1070.6,808h71c17,3.4,33.1-1.1,49.7-4c11.3-2,23.4-3,34.1,4c5.6,10.1,7,21,6.4,32.4
	c-24.6,10.2-50.5,5.7-75.7,5.8c-146.7,0.9-293.3,0.4-440,0.4c-5.5-31.6,8.5-39.8,39.1-39.3C860.3,809.1,965.4,808,1070.6,808z"/>
<path class="st65" d="M1225.4,808.1c-27.9,4.5-55.8,12.8-83.8,0l83.2-19.5C1224.9,795.1,1225.1,801.6,1225.4,808.1z"/>
<path class="st66" d="M638.3,614.7c13.6,16.7,21.3,37.7,38.3,51.9c22.5,30.7,25.4,67.7,32.7,103.2c3.5,4.1,4.1,8.3,0.2,12.5
	c2.3,21.4-5.5,43.8,6,64.3c0.2,12.9,0.4,25.8,0.6,38.8l-19.6,6.3c-20-25.7-28.8-55.8-25-87.2c5.5-45.7-6.7-81.4-42.2-111.9
	C592.9,661.4,587.3,655.3,638.3,614.7z"/>
<path class="st67" d="M740.5,925.1l7.3-6.8c15,6.6,30.1,8.6,46,2.5c9-3.5,20.8-7.2,25.6,4c4.6,11-7.6,16.6-14.9,21.8
	c-6.7,4.8-15.5,6.8-23.3,10.1c-12.6-3.2-25.2,6-37.8-0.3C734.5,946.7,740.4,935.6,740.5,925.1z"/>
<path class="st68" d="M740.5,925.1c21.5,8.6,6.3,20.5,2.8,31.3c-6.2,10.3-16.2,13.4-27.3,14.6c-8.7-11.7,8.8-17.2,6.5-27.5
	L740.5,925.1z"/>
<path class="st52" d="M509.6,659.7l32.4,6.7c3.2,3.4,5,8,4.9,12.7c-5.5,22.5-18.7,41.7-27.5,62.7c-4.4,12.2-12.3,22.4-18.6,33.5
	c-12.1,12.8-24.9,24.3-44.5,22.2c-15.6-1.5-27.3-14.2-43.3-14.8l-38.9-0.5c-22.2,5.5-42.7-6.2-64.4-6.2l-19.8-1
	c-3.9-5.1-3.3-10.2,0.3-15.1c53-23.7,107.2-39.4,165.7-22.2c5.3,1.5,10.1,3.4,14.9-0.7C488.3,713.6,483.6,679,509.6,659.7z"/>
<path class="st2" d="M457.9,788.6c17.4,2.5,26.4-11.7,38.6-19.5c10.3,3.3,14.1,16.8,26.5,16.6c11.5-9.2,5.5-22,6.4-32.9
	c2.8-37.6,14.3-51.8,43.1-50.9c29.9,1,39.1,13,39.4,53.2c0.1,16.9,2.6,34.5-7.9,49.8c-1.4,1-2.8,2-4.1,3.1
	c-55.9,5.7-111.8,13.2-167.7,0C438.5,798.6,451.5,797.9,457.9,788.6z"/>
<path class="st69" d="M309.8,776.1c21.8-1,43.4-0.8,64.4,6.2c-0.8,12.2,2.8,28.2-14.7,30.2c-16.7,1.9-13.6-13-17.1-23.8
	C337.6,774.7,318,788.1,309.8,776.1z"/>
<path class="st70" d="M283.9,776c11.3,13.7,8.5,28.8-4.9,35.5c-21,10.6-21.6-10.9-27.4-22.8c-3-8.4,1.2-13.6,7.8-17.8
	C268.6,767.5,277,767.7,283.9,776z"/>
<path class="st71" d="M283.9,776l-25.7,0.3c-5.1-0.8-8.6-3.7-10.7-8.4c-0.9-3.1-1.1-6.5-0.6-9.7c5.2-16.3,16.6-24.3,33.4-25.4
	c5.5-0.6,10.2,1,13.7,5.5c4.8,9,3,17.1-3.3,24.5c-0.2,4.1-0.5,8.2-0.8,12.3C287.9,775.4,285.9,775.7,283.9,776z"/>
<path class="st72" d="M638.7,730.1c15.3,8.5,12.8,23.5,12.4,37c-0.5,16.3,2.8,31.8,6.6,47.3l-19.1-6.4c-1.5-1.3-3.1-2.6-4.7-3.9
	C622.9,778.7,619.3,753.6,638.7,730.1z"/>
<path class="st73" d="M457.9,788.6c1.2,19.5-11.9,20-25.8,19.5c3-15.5-10.5-18.5-19.1-25.3C428.6,780.6,443.2,785.1,457.9,788.6z"/>
<path class="st74" d="M251.9,769.3l6.3,7l-6.7,12.4l-19.4,12.5c0.2-4.7,0.4-9.5,0.6-14.2C238.1,780,240.1,769.4,251.9,769.3z"/>
<path class="st2" d="M638.6,808c-12.9,9.4-25.8,9.4-38.7,0l0,0C612.7,796.6,625.6,796.6,638.6,808L638.6,808z"/>
<path class="st37" d="M638.5,808.1h-38.7c0-21.4-2.3-43.1,0.6-64c4-29-14.3-30.8-33.9-32.2c-23.3-1.6-25,14.5-24.8,31.9
	c0.2,16,0,32.1-0.3,48.1c-0.1,6.7-1.9,13-9.6,14.7c-9.3,2.1-14-2.7-15.8-11.3c-17.8-17.6-2.8-38.5-5.8-57.5
	c9.9-19.9,17-41.3,31.3-58.8c17.3-9.5,34.6,1.3,51.8,0.3c20.2,12.5,32.3,32.2,45.3,51.1C638.6,756.1,638.6,782.1,638.5,808.1z"/>
<path class="st75" d="M593.4,679.1c-17.3,12.5-34.6,5.3-51.8-0.3c0.2-4.1,0.3-8.2,0.5-12.4c1.9-0.3,3.7-0.5,5.6-0.7
	c11-7.1,21.8-2.5,32.6,0.5L593.4,679.1z"/>
<path class="st76" d="M554.7,647.2c7-11.1,5.5-26.5,19.5-37l6.3,36.4l-6.5,6.9C564.8,659.9,558.9,656.1,554.7,647.2z"/>
<path class="st77" d="M554.7,647.2l19.3,6.4l6.2,12.7c-11,7.1-21.8,6.4-32.6-0.5C548.6,659.1,548.3,651.9,554.7,647.2z"/>
<path class="st78" d="M251.9,769.3c-4.3,8.1-10.4,14.3-19.1,17.6l-13.2-31c-7.6-15.4-1.6-26.3,11.5-34.8c25.6,5.4,18.4,26,19.6,42.7
	C250.8,765.7,251.2,767.5,251.9,769.3z"/>
<path class="st79" d="M232.2,724.4c-7.9,9-11.1,20-12.6,31.6c-0.7,9.1-4.7,16-13.1,19.9c-2,3.2-4,3.3-6,0c8-18.8,6-40.9,19.1-58
	c3.8-3.6,8-4.2,12.7-1.8C234.3,718.5,234.2,722,232.2,724.4z"/>
<path class="st80" d="M200.4,775.8h6c-0.5,20.1-4.3,39.5-12.7,58C194,814.2,189.7,794.2,200.4,775.8z"/>
<path class="st81" d="M211.6,616.3c8.6-9.7-14.9-33.9,17-34c33.7-0.1,20.7,25.2,22.7,41.7c1.9,15.8,0.4,29.6-22.2,29.6
	C194.3,653.5,218.6,629,211.6,616.3z"/>
<path class="st54" d="M296.3,621.2c4-14.6-9.2-41.3,22.1-37.9c28.5,3,14.1,27.8,16.7,43.2c3,17.8-3.9,27.6-24.3,27
	C281.6,652.7,299.6,632.9,296.3,621.2z"/>
<path class="st2" d="M419.1,614.3c1.6,17.3,0.8,35.1-21.5,35.4c-24.5,0.3-16.1-20.9-16.6-33.9c-0.5-13.5-6.5-32.4,18.2-33.1
	S418.2,600.3,419.1,614.3z"/>
<path class="st2" d="M128.7,617.6c2.5-14.6-6.5-35.7,20.1-34.9c25.9,0.8,10.6,20.6,11.7,31.1c1.4,13,6.9,32-17.5,32.8
	C116.2,647.4,133.5,627,128.7,617.6z"/>
<path class="st46" d="M290.7,762.8v-25.7c15-17.6,32.1-19.5,51.1-6.8c13-1.1,27,4,38.8-5.8c15-9.9,30-7.1,45.1,0
	c9.4,9,21,5.6,32,5.8l13.2,6.9c-41.8,1.9-84.1-2.4-124.6,13C328.4,756.9,311,766.4,290.7,762.8z"/>
<path class="st82" d="M232.2,724.4l-0.1-6.5c0.5-3.9,2.7-6.2,6.6-6.7c15.5,1.4,26.2,12.1,38.7,19.5c1.5,1.3,2,2.6,1.6,4
	c-0.4,1.4-0.8,2.1-1.3,2.1c-11.5,6.5-20.3,15.8-27.1,27C244.6,750.6,238.4,737.5,232.2,724.4z"/>
<path class="st75" d="M277.8,736.7c-0.2-2.1-0.3-4.1-0.4-6.2c36.5-25.3,45-25.4,64.4-0.2l-51.2,6.8L277.8,736.7z"/>
<path class="st83" d="M425.7,724.5h-45.1C395.6,702.8,410.7,711.1,425.7,724.5z"/>
<path class="st84" d="M238.8,711.1l-6.6,6.7h-12.6C224.2,710.4,228.1,701.2,238.8,711.1z"/>
<path class="st85" d="M756.7,582c2.7,42.5-2,48.9-30.2,45.6c-10.7-1.2-14.9-4.5-14.4-15.8c0.5-12.7-2.2-25.5-2-38.2
	c0.3-17.7,2.1-32.1,27.9-30.8c25.3,1.3,20.7,14.7,18.7,29.8C756.3,575.6,756.7,578.9,756.7,582z"/>
<path class="st85" d="M941.6,592.3c-14.2-3.7-30.9-1.6-29-23.8c1.1-12.8-3.8-26.6,17.4-25.1c14.9,1,31.7-2.4,30.9,21.2
	c-0.4,15-0.1,30-0.2,45c0,11.9-6.1,17.9-17.9,17.5c-10.3-0.3-23.7,4-28.7-8.3C903.6,592.6,925.5,595.8,941.6,592.3z"/>
<path class="st85" d="M709.4,782.3c0-4.2-0.1-8.3-0.2-12.5c0.1-11.7,0.7-23.5,0.1-35.2c-1.1-18.5,2.6-29.1,25.5-30.5
	c25.6-1.6,24.6,14.6,25.5,29.8C763,782.3,762.5,782.3,709.4,782.3z"/>
<path class="st75" d="M825.5,589.9c-3,10.9,7.1,27.8-9.7,35.6c-10,4.4-21.4,4.2-31.2-0.6c-11.3-5.5-6.7-16.5-6.2-25.7
	c0.6-9.6,2-19.1,1.9-28.7c-0.3-15.5,1.7-26.9,21.9-27.2c21.9-0.3,24.4,12,23.4,28.8C825.3,577.5,825.5,582.9,825.5,589.9z"/>
<path class="st75" d="M1025.5,590.2c-2.6,14.3,13.4,37.6-20.3,37.8c-23.5,0.1-28.5-12.9-24.3-30.2c4.4-18.5-15.7-48,19.7-53.5
	C1023,540.7,1024.6,545.2,1025.5,590.2z"/>
<path class="st86" d="M736.5,472.9c21.4-3,21.7,12.6,22.7,28.5c1.2,17.9-6.2,22.7-24.1,23.7c-22.8,1.3-23.5-11.6-24.9-27.3
	C708.7,479.2,718.2,472.5,736.5,472.9z"/>
<path class="st75" d="M889.5,496c8,22-1.6,28.6-22.7,28.6c-22.7-0.1-21.5-14.2-22.1-29.8c-0.8-22.6,13.9-21.9,29.6-22.2
	C892.7,472.2,897.7,479.6,889.5,496z"/>
<path class="st75" d="M825.2,494.8c1.1,17.4-0.6,28.9-20.8,29.9c-24.6,1.2-22.6-14.7-25.2-30.8c-3.2-20,8.3-20.5,22.2-21.1
	C819,471.8,828.1,478.4,825.2,494.8z"/>
<path class="st75" d="M932.1,472.8c17.1-0.3,29.8,3.6,28,23.1c-1.4,15.2-3,28.8-25.2,28.9c-31.6,0.2-16.9-23.1-20.8-36.5
	C908.5,469.5,923.9,474.2,932.1,472.8z"/>
<path class="st75" d="M734.2,634c17.2,0,18.3,0.6,11.3,13.1c-4.3,7.6,1.8,5.4,4,6.4c16.5,7.6,10.7,20.8,2.9,27.5
	c-9.8,8.5-25.7,8.5-35.3-0.5s-5.7-24-4.6-36.4C713.9,629.2,726.8,636,734.2,634z"/>
<path class="st75" d="M933.1,634.9c22.9-6,25.3,7.6,26.9,24.1c2,19.9-10.4,20.2-24,20c-12.6-0.3-28.1,2.1-25.4-18.2
	C912.3,647.2,908.4,626.8,933.1,634.9z"/>
<path class="st75" d="M869.5,588.7c-13.1,0.1-25.3-0.1-23.6-18c1.4-15,0.8-31.5,24.1-27.1c10.3,1.9,25.7-5,23.5,15.9
	C891.7,575.2,890.7,590.5,869.5,588.7z"/>
<path class="st75" d="M800.8,651.2c11.7,3.7,27.9,1.7,23,20.1c-4.4,16.9-19.2,15.2-31.7,13.5c-23.8-3.2-12-21.7-11-32.9
	c2.6-28.6,23.5-15.3,39-16.4C820.9,651.7,806.7,643.2,800.8,651.2z"/>
<path class="st75" d="M869.4,678.9c-11.7,0.4-21,1-21.3-11.5c-0.3-11-6-25,6-31.5c7.3-3.9,19.5-2.7,27.8,0.5
	c8.5,3.3,2.2,7.8-3.1,9.9c-6,2.3-11.1,4.5-0.4,7.3c9,2.3,12.7,8.1,9.9,16.6C884.7,681.2,874.4,677.8,869.4,678.9z"/>
<path class="st87" d="M844.9,750.4c17.8-2.4,34.8,0.9,51.5,6.5c-1.1,14,3.5,30.4-21.2,29.3C850.2,785.1,841.4,773.9,844.9,750.4z"/>
<path class="st75" d="M1032,653.4c-0.6,11,2.6,22.8-6.2,32.2c-9.3-1.1-18.6-2.9-27.9-3c-8.7-0.1-17.2,1.5-17.3-11.5
	c-0.1-11.6,5.1-17.6,16.9-17.7L1032,653.4z"/>
<path class="st88" d="M867.2,627.4c-11.4,0.3-19.9-0.1-19.9-16.4c0-17,9.9-15.5,20.5-15.7c11.3-0.2,19.9,0.1,19.8,16.4
	C887.6,628.7,877.8,627.3,867.2,627.4z"/>
<path class="st89" d="M805.7,743.6c-9.7,0-24.4,11.9-25.1-10.1c-0.5-13.9-2.1-29,19.2-28.5c6.3,0.1,12.7-0.1,19-0.2
	c2.1,1.9,3.5,4.4,3.9,7.2c-0.3,10.2-3.2,19.5-9.7,27.5C811,741.5,808.5,743,805.7,743.6z"/>
<path class="st90" d="M805.7,743.6l0.7-6.8c4.8-2.9,8.9-6.9,14.5-8.5c13.2,1.4,9.4,16.3,17.5,21.8l-0.7,0.5
	c-17.4,10.6-17.9,35.5-37.5,44.3c-5.8-10.6-5.5-21.3-0.2-32L805.7,743.6z"/>
<path class="st75" d="M1019.1,717.9l-6.3,19.3l-32.4-12.9c-0.7-12.1,4.1-21.2,16.3-23C1008.4,699.6,1016.7,705.4,1019.1,717.9z"/>
<path class="st87" d="M909.8,762.5c20.6-1.5,38.1,9.6,57.4,13.6C945.4,782.9,922.6,794.2,909.8,762.5z"/>
<path class="st91" d="M864.5,717.7c-10.6,3.3-12.3,18.6-25.2,18.7c-9.4-6.2-13.4-15-13.2-26.1c1.5-6.8,2.6-13.9,12.4-12.5
	C850.8,699.6,858.8,707.1,864.5,717.7z"/>
<path class="st88" d="M1024.9,472.8c0.5,1.9,0.8,3.8,0.9,5.8c-0.1,6.7-0.2,13.3-0.3,20c-7.1,3.5-10.5-0.6-12.9-6.5
	c-6.6-9.8-20.6-2.6-29.2-13.7C996.7,468.7,1011.5,474.4,1024.9,472.8z"/>
<path class="st92" d="M909.2,718c11.3-25,30.3-8,46-9.1C941.8,722.6,924.7,715.7,909.2,718L909.2,718z"/>
<path class="st88" d="M1032,640.4c-15.4,7.3-30.9,9.8-53-0.7C1001.3,632.5,1016.7,630,1032,640.4L1032,640.4z"/>
<path class="st88" d="M985.9,519.4c11.3-10,22.8-10,37.2-2.4C1009.7,528.9,997.6,522.4,985.9,519.4z"/>
<path class="st93" d="M1012.6,492l12.9,6.5c-13,10-26.4,7.3-43.8,1.9C992.4,489,1003.2,493.2,1012.6,492z"/>
<path class="st94" d="M838.4,697.9l-6.6,12.4c-0.8,2.5-3,4.2-5.6,4.5c-2.6-0.3-5-1.5-6.7-3.4c-0.2-2.2-0.4-4.4-0.6-6.6
	C823.8,698.1,827.6,688.1,838.4,697.9z"/>
<path class="st95" d="M800.1,763c0,10.7,0.1,21.3,0.2,32C790.4,784.3,790.3,773.7,800.1,763z"/>
<path class="st96" d="M1084.2,434.6c5.8,21.2,7,42.8,4.9,64.6C1053.8,459.6,1053.6,456.7,1084.2,434.6z"/>
<path class="st97" d="M824.9,711.2l6.9-0.9c2.5,8.7,5,17.4,7.5,26.1c-0.3,4.6-0.6,9.2-0.9,13.9c-13.7,0.2-11.7-14-18.5-20.1
	C815.4,722.2,820.9,716.9,824.9,711.2z"/>
<path class="st4" d="M510.2,737.6c11.5,18.2,3.3,38.4,5.8,57.5c-11.7-4.8-21-11.3-19.4-26L510.2,737.6z"/>
<path class="st98" d="M824.9,711.2l-5.1,18.9l-13.4,6.8c5.2-8.1,4.3-19.3,13.1-25.5C821.3,711.3,823.1,711.3,824.9,711.2z"/>
<rect x="0" class="st99" width="1612.3" height="1080.3"/>
</svg>
