<svg id="Layer_1" data-name="Layer 1" xmlns="http://www.w3.org/2000/svg" viewBox="0 0 1612.43 1080.3"><title>Untitled-1</title><path d="M151.06,214.45V14.52C165.53,4,182.19,8.27,197.9,8.26q555-.37,1110.06-.19c77.39-.22,154.82.45,232.23-.35a64.12,64.12,0,0,0,11.52-2.36,41.43,41.43,0,0,1,17.46,1.8c52.38,2.07,104.78.2,157.16,1,12.57.2,25.9-2.87,37,6.34V246.69c-12.08,9.45-9.62,22.91-9.64,35.58-.08,54.67,0,109.35-.06,164,0,8.56,1.07,17.3-1.07,25.64-4.83,18.88-17.13,29.35-36.86,29.7-20.57.37-31.78-10.58-34.46-30.56-3-22.41-.64-45-2.09-67.45-.5-7.81,1.92-19.91-10.33-19.75-9.73.12-7.93,11-8.81,18-2.19,17.41-4.36,34.31-24.77,40.93-28.5,9.24-51.09-3.17-58-32.49-8.28-34.94-20.85-46.5-57-47.31-27.79-.62-49.83-8.77-65.23-33.31-7.37-11.74-18.41-21-30-28.81-31.37-21-43.39-49.76-42.54-87.69,1.65-73.74,6.75-66-66-54.13-24.31,4-48.29,10.08-72.57,14-20.78,3.35-29.3,13.37-29.09,34.4.18,18.09-4.26,36.14-2.66,54.43,1.54,8.6-2,16.9-1.37,25.42,4.68,45.73-4.62,58.73-38.12,54.35-19.89-2.6-30.95-13.11-33.08-33.14-1.48-13.91-1-27.89-1.78-41.83-.87-15.51-7.1-29.49-23.43-29.46-24.32,0-21.46-15.33-21.68-30.36a166.08,166.08,0,0,1-5,44c-10.91,42.49-50.35,61.18-90.44,41.91C981,285,979.29,270.25,977.53,255c-1.81-15.69,1.14-31.51-7.25-47-16.6-30.63-39.41-45-75.07-39.18-23.22,3.81-47.05,3.07-70.62,3.66-8.33,1.17-16.77.9-25.13,1.81C767.84,177.77,755,193.81,759,225c1.21,9.36,4,18.51,3.93,28.09-.9,10.49-5.43,19-13.88,25.3-5.7,3.36-11.74,6.08-17.68,9-15.3,4.73-30.09,12.38-47,8.85-17.24-6.76-11.76-27.94-25.18-41.82-12.28,25.52-1.53,50.72-9,73.31-7.54,11.45-17.39,17.41-31.46,13.41-9.63-3.69-12.39-14.5-20.32-19.92-9.11.52-8.45,8.41-10.74,13.91-4.55,10.92-8.33,24.39-23.53,21.32C550.7,353.71,548.4,340.5,546,328.71c-2.28-11,.55-23.31-6.73-34.69-11.85,10.71-6.53,23.37-8.35,34.29-3,17.8-6.25,35.71-29.36,35s-25.75-19.19-27.25-36.86c-1.53-18.19-.78-36.48-.86-54.72-.13-28.66-20.86-24.79-38.77-24.93-18.19-.14-38.32-3.11-38.47,25.3-.15,26.83.74,53.68-.81,80.49-1.23,21.26-8.14,38.19-33.23,39.31-22.37,1-34-11.3-36.14-39.63-2-25.69.14-51.52-1.3-77.25-.35-6.22-.54-14.47-8.82-14.9-8.5-.44-8.9,7.71-9.62,13.93-.86,7.45-1,15-2,22.44C301,320.15,285.86,329,263.76,329c-22.26,0-38.52-9.35-39.79-32.89-1.18-21.74-11.38-37.52-23.38-54.56C187.71,223.22,163.24,230.94,151.06,214.45Z" transform="translate(-150.99 0.3)" style="fill:#a3cfde"/><path d="M1202.49,266.11q0-38.6-.09-77.19c0-13,3.38-23,18.4-25.61,50.49-8.72,101.14-16.8,151.27-27.27,20.33-4.24,24.53,2.67,23.84,20.54-.83,21.41,2.08,43.18-.71,64.25-4.08,30.79,9.37,50.9,32.94,66.95,19.61,13.35,37.76,27.51,47.35,50.71,6.27,15.17,21.79,9.68,34,11.51,19.74,2.94,39.53-6,59.22,13.62,14.8,14.75,22.06,26.72,20.37,45.73-2.16,24.31,13.51,24.26,31,24.66,18.39.42,29.08-4.84,27.18-25.31-.59-6.38,0-12.86-.05-19.29-.11-13.46-.2-26.2,19-26.5,19.78-.31,26.5,9.74,26.21,28-.39,24.65.28,49.32-.15,74-.28,15.69,1.93,27.13,22,27.17,19,0,28.52-8.84,29-26.49.93-32.14.5-64.32.56-96.48s.18-64.33,0-96.49c-.1-13.87.53-26.58,19.46-25.84V698.13c-4.71,4.28-8.5,10.57-14.59,12.16-62.37,16.18-123.93,36.26-188.86,40.69-14.56-4.93-12.51-17.23-12.55-28.53-.07-17.67,0-35.35,0-53a64,64,0,0,1,7.25-32.86,61,61,0,0,0-7.28,31.63c-.38,27,.72,54-.41,81-28.6,20.74-59.48,30.6-94.66,19.82-3.33-37.12-1.31-74.21-1.3-111.34-.83,35.56,0,71.17-.52,106.76-1.42,10.65-8.13,15.07-18.22,15.47-10.89-1.85-16.65-9.76-19.59-19.11-15.32-48.61-45.88-89.2-69.59-133.38-2.11-4.42-5-8.42-7-12.91-6.53-20.23-19.58-38.29-20.37-60.46-.91-12.23,1.14-23.45,10.91-32,23.07-15.49,44.57,7.59,73.38,3.53-26-15.86-55.83-10.07-72.48-32.12-5.92-9.69-8.26-21.37-3.22-30.53,17.89-32.51,5.33-59-13.67-85a40.73,40.73,0,0,1-6.22-14.56c-2.51-14.67.27-30.69,12.38-37.19,34.28-18.39,33.4-47.5,29.11-78.84-15.45-31.93-40.8-19.85-64.57-14.49a33.37,33.37,0,0,1-8.77.21c-13-3.43-26.22-12.06-38.72,1.32C1220.9,242.61,1223.52,266.06,1202.49,266.11Z" transform="translate(-150.99 0.3)" style="fill:#b6d9e4"/><path d="M1763.34,988.34v83.84c-11.13,6-23.19,3.06-34.77,3.06q-771.37.26-1542.75,0c-11.58,0-23.64,3-34.77-3.06V988.34c15.22-16.23,35.31-13.13,54.31-13.17,208.85-.36,417.7.19,626.53-.42a90.66,90.66,0,0,1,12.22-.48c9.85,1.79,19.4,5.16,29.51,5.77,176.48-10.22,353.11-2.53,529.65-5,11.88-.16,23.39,2.32,35.11,3.29,10.35.46,20.71.31,31.07.33,82-5.51,164.12-3.32,246.2-3.54C1732.73,975.1,1750.18,974.07,1763.34,988.34Z" transform="translate(-150.99 0.3)" style="fill:#c0dee8"/><path d="M151.06,214.45c60.07.13,81.51,19,83.27,77.91C235,315.7,246.54,318,264.93,318c17.62,0,29.58-3.32,28.1-24.55-.82-11.74,0-23.59.09-35.4.1-14.27,8.86-17.71,21.22-17.82,13.27-.11,23.64,2.34,23.62,18.73,0,32.19.45,64.39,0,96.58-.22,16,2.61,26.82,22.47,26.83,19.44,0,23.27-9.92,23-26.37-.57-31.11.6-62.26-.4-93.35-.64-19.76,4.74-29.65,26.87-29.17,93.23,2,74.28-11.56,76.46,72.64.3,11.8.07,23.61.59,35.39.38,8.75,5.27,13.67,14.29,14.07,10.29.45,16.6-4.06,16.94-14.65.51-16.08.66-32.18.6-48.27,0-13,5.17-19.95,19-20,13.56,0,19.58,6.16,19.52,19.47-.07,15,0,30,.62,45.05.26,6.33,1.58,13.85,10.16,13.24,6.32-.45,7.45-6.81,8.13-12.23.4-3.18.28-6.43.51-9.63.93-13.23-3.73-29.31,18.53-30.2,21.94-.88,19.11,15,21.24,28.32.62,3.88,3.94,7.33,6,11,2.79,6.78-.25,12.41-3.6,17.94-21.84,36-21.53,38.54,9,68.74,9.75,9.64,22,17.58,23.18,33.11.44,5.78-2.66,10.09-7,13.68-14.6,9.32-31,7.84-47,7.87-95.61.2-191.23.59-286.83-.26-26.06-.23-39.37,9.11-51,33.41-17.87,37.26-22.68,74.75-21.47,115,1.48,49.37.55,98.83.28,148.24-.21,38.45-9.1,50.11-37.66,50.6-28.86.49-35.92-9.19-36.37-49.79q0-36.32,0-72.82,0,34.83,0,69.73c-4.28,13.77,10.43,33.43-12.9,41.14Z" transform="translate(-150.99 0.3)" style="fill:#b6d9e4"/><path d="M841.54,981.39c-11.76,11.21-26.48,6.77-39.95,6.78q-325.27.39-650.53.17V840c9.81-10.19,22.62-13.77,35.49-11,45.72,9.78,92.08-7.15,137.64,4.16,6.4,1.59,12.74-1,19.09-1.93a99.87,99.87,0,0,1,23.1.5c137.28,3.06,274.56,1.64,411.83.95,12.05-.06,23.47.88,34.64,5.19,23.41,10,19.6,35.25,29.67,52.75,3.07,10.83,5,21.81,3.89,33.14C840.36,942.58,859.45,963.59,841.54,981.39Z" transform="translate(-150.99 0.3)" style="fill:#b0d6e3"/><path d="M344.74,839.88c-9.57,5.18-19.86,7.94-30.61,6.2C260,837.36,205.15,849,151.06,840v-25.8c11.51-13.7,4.44-30.07,6.47-45.13q6.43-5.73,12.86,0c4.5,16.65-13.06,43.39,23,45.49,25.76,1.5,36.45-5.72,35.58-33.66-2.32-73.89-5.66-148.1-.91-221.69,2-30.35,22.21-60.14,37.05-88.67,4.66-9,20-4.48,30.55-4.5,105.11-.16,210.22,0,315.33-.25,12.46,0,26,3.79,36.82-6.53,10.93-2.53,15.72,4.32,19.54,12.73,5.18,19-7.7,33.16-13,49.41-9.78,14.93-12.51,35.18-32.09,42.77-16.45,6.47-33.68,5.12-50.77,5.09q-138.11-.19-276.21.09c-15.23,0-35.74-6-43.09,12.37-8.35,20.86-7.27,44.44,0,66.05,4,11.89,17.23,11.48,27.83,11.46,74.61-.2,149.15,3.09,223.85,1.6,35.31-.7,72.54-10.15,107.53,5.32a14.93,14.93,0,0,1,6.26,8.76c-5.28,21.72-23.52,19.21-38.89,19.28-96.22.45-192.41,2.57-288.62,3.54-42.22.43-42.51.71-42.7,43.57-.06,13.44-.81,27,2.56,45.11,6.69-17,3.73-29.94,5.79-42.28,4.29-25.72,19.68-41.56,41.61-40.8,25,.86,37.4,17.24,38.16,39.6,1,29.6,3.6,58.59,12.06,87A23.23,23.23,0,0,1,344.74,839.88Z" transform="translate(-150.99 0.3)" style="fill:#c0dee8"/><path d="M1763.34,988.34l-297-.22a12.53,12.53,0,0,1-2.56-8.7c1.94-8.18,7.08-13.66,14.45-17.27,13.87-3.68,27.92-7,42.16-16a30.8,30.8,0,0,1-14.55,2.56c-13.78-3.84-28.52-4.12-41.45-11.26-17.22-28.38-36.3-56.38-19.43-92,11.58-11.72,26.59-13.92,41.71-13.4,77.27,2.68,154.56.37,231.84,1.24,16.24.18,32.47,0,44.84,13.14Z" transform="translate(-150.99 0.3)" style="fill:#b0d6e3"/><path d="M1763.34,846.46c-93.34-.82-186.68-2-280-2-12,0-26.21-1.72-36.39,9-24.17-8.91-21.8-28.32-19-47.87,8.14-19.27,21.09-8.05,32.83-5.23,24.48,1.11,48.94,5.65,73.1-1.32,7.16-4.5,6.62-12.57,9.3-19.18,3.1-7.64,6.5-16.81,18-9.19,8.34,18.15,22.93,24.19,42.29,28,39.59,7.73,78.5-3.4,117.77-.38,13.86,1.07,15.26-11.68,16.73-22.74,1.89-14.26-1.31-30.56,14.13-40.17,16,9,5.51,24,7.9,36.09s-3,24.69,3.45,36.34Z" transform="translate(-150.99 0.3)" style="fill:#bedde8"/><path d="M151.06,1072.18H1763.34c1,12.68-8.82,6.12-12.86,6.12q-793.28.52-1586.56,0C159.88,1078.3,150.06,1084.87,151.06,1072.18Z" transform="translate(-150.99 0.3)" style="fill:#c9e3ee"/><path d="M1763.34,807.77c-16.23-21.48,3.34-49.47-12.89-70.95-53.94,13-108.32,24.09-162.48,36.13-10.56,2.35-21.3,2.36-31-3.88-14.27,9.57,3,29.66-12.91,38.69-23-21.75-51.35-21.75-90.28,0-7.9,2.24-9-15.88-19.3-6.45-12.47-6-15-14.49-6.53-25.79l19.35-6.49q3.25-6.26,6.52,0l90.2-19.35c4.92-6.85,14.31-.05,19.4-6.37l199.92-45.18Z" transform="translate(-150.99 0.3)" style="fill:#c6e1eb"/><path d="M151.06,8.07c5.8-13.33,17.44-6,25.8-6.06q567.52-.68,1135-.39.79,7.31-6.3,9.28c-377.56.86-755.12.13-1132.69.31C165.55,11.22,157.82,12.77,151.06,8.07Z" transform="translate(-150.99 0.3)" style="fill:#b4ced7"/><path d="M151.06,8.07,1311.93,8l2.44,3.27-2.46,3.25H151.06Z" transform="translate(-150.99 0.3)" style="fill:#a0d0e0"/><path d="M1311.93,8q0-3.18,0-6.37h238.62q6,3.2,0,6.35V8.1a1819.74,1819.74,0,0,1-238.63,0Z" transform="translate(-150.99 0.3)" style="fill:#b6d5de"/><path d="M1550.5,8q0-3.17,0-6.35c65.57,0,131.13-.23,196.69.46,4.84.05,15.61-8.31,16.13,6a1281.74,1281.74,0,0,1-199.87.06Z" transform="translate(-150.99 0.3)" style="fill:#b4ced7"/><path d="M1563.48,8.13l199.87-.06v6.45c-55.45,0-110.91.15-166.36-.12C1585.58,14.34,1573.27,17.49,1563.48,8.13Z" transform="translate(-150.99 0.3)" style="fill:#9fd0e0"/><path d="M821.8,162.45q58.32-3,116.64-6c14.5-.75,18,10.54,26.72,18.83,29.6,28.25,22.72,62.05,24.82,95.15.68,10.74,7.8,14.55,17.42,14.66,16.06.18,32.12.08,48.18,0,14.3-.06,17.77-9,17.67-21.27-.23-29,18.8-52.26,24.65-79.83l2.76,44.16c18.44,1,5.07-20,14.56-21.18,35.41,28.25,38.27,65.41,36.3,105.54-1.3,26.37,22.62,15.64,36.34,18.47,19.1,3.94,13.33-11.25,14.32-20.58.94-8.82-2-16.89-6.57-24.39,13.73-8.57,24-20.87,35.09-32.32,8.29-8.55,17.85-16.24,31-11.29,11.28,4.24,10.9,14.39,10.83,24.22-.05,7.75,3.88,14.29,7.3,20.94a190.64,190.64,0,0,1,7,17.85c2.27,11.25,1,21.82-6.1,31.24-6.25,6.95-15.76,11.23-17.87,21.74-34.58,35.13-64.83,75-109.86,98.65-95,2.41-190,7.18-284.81-2.43-24.43-20.15,6.8-25,10.29-37.53,7.38-7.78,17.51-11.91,25.57-18.84,4.8-4.13,10.9-9,5.79-15.89-6.19-8.31-13.38-4.71-18.49,1.72-12,15.14-24.47,29.15-43.72,35.71-32.16,11-43.58,3.92-48.31-31.06,1-13.5-1.56-26.42-6.59-38.91-3.79-8.27-6.61-16.92-10.1-25.35a39.51,39.51,0,0,1-1.7-9.42,48.58,48.58,0,0,1,9.86-32.16,38.52,38.52,0,0,1,15.57-10.81c35.82-13.73,27.1-46.69,31.79-73.79C842.28,182,822.29,176.67,821.8,162.45Z" transform="translate(-150.99 0.3)" style="fill:#b6d9e4"/><path d="M790.23,323.27l11.1,20.82c-3.22,14.72,3.5,29.18,1.09,43.88,0,6.59,0,13.18.05,19.77.76,18.5-5.9,35.46-10.87,52.78-8.29,16.22-8.41,34.58-13.4,51.69-4.68,9.17-4.86,20.44-13,28A31.92,31.92,0,0,1,745,546.95c-19.57-1.82-40.94-1.46-39.18-30.59a12.57,12.57,0,0,1,1.79-2.49c28.21-25.41,28.21-25.41.19-50-16.4-21.47-20.28-42.82-1.72-65.73,9.78-12.08,12.65-26.34,3.43-40.82-.25-2.11-.71-4.78.56-6.06,20.09-20.36,26.93-44.54,21.41-72.42l13.19-6c10.53,1.59,20.31,4.29,24.19,16C772.69,302.27,778.66,314.5,790.23,323.27Z" transform="translate(-150.99 0.3)" style="fill:#f8f6f6"/><path d="M661.26,472.36l-13.44-13.09c-10.28-19.38-30.64-28.76-44.66-44.94-20.83-24-21.37-41.56,4.24-60.31,5.88-4.3,10.11-10.86,15.1-16.37l24.76-14.19a14,14,0,0,1,8.21-3.69,20.06,20.06,0,0,1,8.75,2.78c10.47,12.81,26.77,22,26.28,41.73-2.55,10-10.2,15-18.87,18.9-7.84,1.16-15.76,7.11-22.09,1.46,8.85,5.8,15.18,16.91,24.11,25.61,11.26,16.35,23.45,32,35,48.16-1.56,14-14.79,19.34-21.83,29.31a16,16,0,0,1-12.51,1.2C666.9,485.84,666.54,477.16,661.26,472.36Z" transform="translate(-150.99 0.3)" style="fill:#eedacd"/><path d="M763.32,292.09l-18.71-19.28,12.76-18.34c1.72-44.91,46.53-44,70.4-65.24,4.85-4.32,14.39-.82,19.18,6.42,1.9,25.27-.1,49.44-11.66,73.07C828.55,282.51,821.8,286,808.9,279c-7.61-4.31-10.69-.05-12.5,6.61l-7,31.8C773.06,316.9,765.38,307.4,763.32,292.09Z" transform="translate(-150.99 0.3)" style="fill:#efdbcd"/><path d="M846.95,195.66c-12-.5-25-1.5-31.87,10.33-7.84,13.51-10.72,31.2-33.45,16.64-6.7-4.29-9.52,5.16-8,12.34,2.83,13.35-7,16.23-16.26,19.5-27.51-65.73-9.2-91.88,64.43-92C831.59,172.45,857.8,170,846.95,195.66Z" transform="translate(-150.99 0.3)" style="fill:#bfb1b0"/><path d="M686.2,362.79c-6.47-14.38-24.14-21.15-26.19-38.54,4.19-9,16.61-12.62,15.91-24.74,2.3-4.32,6.64-5.64,10.73-7.32,14.21-6.86,28.4-13.76,44.77-13.34,25.27,37.66,24.27,41.65-19.27,77.5C707.49,374.57,699.08,377.66,686.2,362.79Z" transform="translate(-150.99 0.3)" style="fill:#fcfdfd"/><path d="M686.65,292.2l-6.37,6.92c-2.71,14.62-15.55,18.55-26.2,24.79l-6.83-.43c-10.37-21.27-4.94-43.93-5.64-66-.38-11.92,6.61-16.78,18.15-17,13-.28,19.7,4.87,20.16,18.5C680.31,270.27,676.89,282.66,686.65,292.2Z" transform="translate(-150.99 0.3)" style="fill:#b7d9e5"/><path d="M1272.73,292.91c-7.22-7-10.57-15.57-11.07-25.59-.32-6.4,8-15.5-3.93-18.56-8.18-2.09-14.55,3.88-18.34,10.24-10,16.85-23.61,27-43.78,27.06l6.88-20c9.73-12.27,9.52-30.91,25.24-39.34,15.07.67,30.14,1.19,45.23,1.08l6.6-1C1299.41,251.16,1283.77,271.8,1272.73,292.91Z" transform="translate(-150.99 0.3)" style="fill:#e4d2a8"/><path d="M1311.88,8.15l238.63,0c-9.8,9.38-22.13,6.26-33.56,6.3-68.35.24-136.7.12-205,.12Q1311.9,11.33,1311.88,8.15Z" transform="translate(-150.99 0.3)" style="fill:#a0cedf"/><path d="M1261,351.83c-7.68-15.63,6.37-12.87,13.51-16,22.72-5.16,29,12.35,37.36,27,6.89,9.49,14.6,18.51,20.51,28.58,12.51,21.33,26,42.36,3.67,66.78-8,8.77-4.48,22.62-3.57,34.39,8.39,10.62,7.95,20.94-1,31-5.8,10.4-7,21.73-6.71,33.34a18.25,18.25,0,0,1-7.23,3.56c-9.43-1.53-19,.52-28.46-1-12.39-7-21.2-18.19-31.79-27.35a29.15,29.15,0,0,1-3.69-8c-3.29-35.58,10.73-68.32,17.56-102.19,1.45-7.2,3.22-14.12,3-21.47C1281.74,381.09,1276.73,365,1261,351.83Z" transform="translate(-150.99 0.3)" style="fill:#9fb8c1"/><path d="M1428,775.53l6.53,25.79a116.49,116.49,0,0,0,12.45,52.13c2.45,29.72,10.44,57.72,25.83,83.43a7.22,7.22,0,0,1,.35,8.32,20.35,20.35,0,0,1-8.16,4.14,23.08,23.08,0,0,1-13.53-2.36c-21.57-20.19-30.95-48.63-48.4-71.7a29,29,0,0,1-3.27-9.32c-6.26-29-16.42-57.24-14-87.66,1.12-14-8.84-23.39-16.21-33.69-14.2-19.88-32.6-36.89-42.67-59.55-14.4-32.41-5.14-56.83,23.37-64.17C1380.77,670.12,1414.28,717.84,1428,775.53Z" transform="translate(-150.99 0.3)" style="fill:#fce9dc"/><path d="M1318.27,556.08l6.44.89c3.53,20.07,20.4,35.45,19.94,56.91-18.74,20.86-33.61,46-62.1,56.12-8.69,1.77-17.5,2.81-26.31,4.07-11.36,1.75-21.54-4-32.51-4.94-10.65-.18-20.11-2.72-25.79-12.85-2.3-40,19.35-66.06,50.66-86.43,14.92-1.86,29-7.5,43.58-10.8C1300.74,556.94,1309.17,553.54,1318.27,556.08Z" transform="translate(-150.99 0.3)" style="fill:#fdfdfd"/><path d="M1279.65,665.8c21.58-17.41,40.38-38.3,65-51.91l5.64,7c-23.2,21.14-26,47.78-6.8,72.61,11,14.29,22.66,28.15,34.65,41.66,7.22,8.14,16,16.85,15.63,27.19-1.3,37.71,11.61,73.3,14.34,110.3-21.47.88-26.06-16.44-33.39-30.86-4-10.5-3.45-22-7.13-32.56-1.79-6.08-1.33-12.29-1.14-18.47-12.34-35.72-42-58.12-65.3-85.5C1291.36,693.74,1274.13,685.81,1279.65,665.8Z" transform="translate(-150.99 0.3)" style="fill:#f4e3d7"/><path d="M1311.86,362.91l-37.37-27q2.94-15.43,5.86-30.84c-.94-43.36,31.69-71.48,75.18-64.79,1.9,13.75,4.7,27.45,5.48,41.26,1,17.31.53,36.93-20.4,41.42C1317,328,1313.36,343.82,1311.86,362.91Z" transform="translate(-150.99 0.3)" style="fill:#fbe8dc"/><path d="M1355.53,240.25c-29.14,16.86-68.84,21.47-75.18,64.78q-3.8-6.06-7.61-12.13,3.4-33,6.81-66C1314.4,205.72,1334.55,209.27,1355.53,240.25Z" transform="translate(-150.99 0.3)" style="fill:#e9d6a8"/><path d="M1331.42,523.63q.51-15.49,1-31c20.48,4.78,39.43,14.9,61.91,12.77,14-1.33,21.25,10.74,19,23.75-2.64,15.59-15.3,16.6-27.41,11.67C1368.23,533.58,1350.91,525.29,1331.42,523.63Z" transform="translate(-150.99 0.3)" style="fill:#f9e8dc"/><path d="M1272.95,227.86c-15.38,12.56-30.66,20.72-45.22-1.08C1243.28,207.14,1258.26,211.1,1272.95,227.86Z" transform="translate(-150.99 0.3)" style="fill:#e9d6a7"/><path d="M1453.83,769h-6.52q0-60.22,0-120.45l6.52,0Z" transform="translate(-150.99 0.3)" style="fill:#bedde9"/><path d="M1544.08,659.44c3.29-35.59,10.54-41.5,44.55-31.38-19.08,6-33.18,14-38.11,31.37Q1547.31,665.42,1544.08,659.44Z" transform="translate(-150.99 0.3)" style="fill:#badce7"/><path d="M1544.08,659.44h6.44c0,19.74-.06,39.49.05,59.23.06,10.34-1.29,21.58,12.85,24.64-5,6.49-12.23,6.39-19.4,6.37Q1544.05,704.56,1544.08,659.44Z" transform="translate(-150.99 0.3)" style="fill:#c0dfe8"/><path d="M1488.85,626.21c-4.09,2.36-6.47,4.79-9,5-4.4.28-8.48-2-7-7.16.47-1.6,5.32-2.75,8.07-2.59C1483.19,621.54,1485.31,623.94,1488.85,626.21Z" transform="translate(-150.99 0.3)" style="fill:#bedde9"/><path d="M1382.71,840.16l25.39,32.48.1-.15c13.92,21.89,26.78,44.31,34.58,69.26,3.52,11,1.64,22.57,4.13,33.66-.31,5.15-2.68,9.34-6.16,13-172.74,0-345.49.5-518.22-.82-18.59-.14-37.16,12.46-55.68.62-.21-19.7,19.69-15.13,29.09-23.39,8.37-7.35,21.14-8.84,30.67-15.57,7.82-4.93,17.76-6.57,25.24-17.79-21.57,3.48-41.17,4.32-59.46-5-22.25-5.31-26.49-24.88-33.66-42.23-3.08-13.5-3.18-26.62,4.84-38.75a29.14,29.14,0,0,1,9.64-7.18c13.2-6.07,27.31-4.8,41.19-4.91,143.73-1.12,287.47,1.84,431.2-1.53C1358.48,831.55,1371.38,832.75,1382.71,840.16Z" transform="translate(-150.99 0.3)" style="fill:#b0d6e3"/><path d="M841.54,981.39c.53-19.42-10.14-37.68-5.91-57.48,16.74-3.19,29.18,4.43,40.1,15.91,6.1,12.36.16,22.94-5,33.67-5.85,8-14.5,8.52-23.31,8.54Q844.48,981.83,841.54,981.39Z" transform="translate(-150.99 0.3)" style="fill:#e6e7e7"/><path d="M847.45,982l19.64-11.28c5.94-9.63,15.31-15,25-20,13.84-1.49,28.49-8.44,40.13,5.67-19.7,14.87-43.86,20.57-65.32,31.81C859.73,988.21,852.48,988.59,847.45,982Z" transform="translate(-150.99 0.3)" style="fill:#f0f1f1"/><path d="M1440.75,988.41l-.08-11.42c2.47-5.06,6.91-6.62,12.12-6.82,7.24,1,12.28,4.56,13.76,12.12q0,2.92-.22,5.84Z" transform="translate(-150.99 0.3)" style="fill:#9db6c1"/><path d="M170.39,769.08H157.53q0-54.54,0-109.09l12.86.11Z" transform="translate(-150.99 0.3)" style="fill:#bcdce7"/><path d="M173.73,642.53c8.71-8.7,17.57-12.29,21.37-5.66,4.41,7.7-5.25,8.47-10.85,9C181.61,646.08,178.79,644.22,173.73,642.53Z" transform="translate(-150.99 0.3)" style="fill:#bcdce7"/><path d="M815.78,846.2c-128,.07-256.09.57-384.12-.18-22.61-.13-46.26,4.67-67.94-6.79-11-18.7.6-31,12.25-43.24,7.94-5,15-12,25.39-11.74,16,11.25,30.27,17.41,33.16-11a24.42,24.42,0,0,1,7.69-4.79,39.69,39.69,0,0,1,18.26-.66C475,775,492.88,771,505.65,787.53c11,14.28,11.89-11.65,21.76-11.33,11.31-5.59,23-5.51,35-2.72a61.53,61.53,0,0,1,33.14,23.2c28.35,12.28,58.56,6.25,87.57,6.34,20.85.06,42.16-2,63.33-2,14.53,3.19,29.13,4.69,43.93,1.56,9.06.52,17.18,3.41,24.05,9.49C823.41,823.07,826.78,834.36,815.78,846.2Z" transform="translate(-150.99 0.3)" style="fill:#bedde8"/><path d="M815.78,846.2c.09-11.22-1.27-22.11-7.1-32-12.29-10.09-16.55-23.14-16-38.84.46-12.31,2.07-25.33-7.49-35.7-14.07-18.64-27.46-37.86-45-53.61-5.53-5-11.47-9.57-15.46-16.05-3.22-5.41-5-11.18-4.48-17.56a24.14,24.14,0,0,1,6-12.21c19.7-15.65,36.93-34.39,58.56-47.78a11.28,11.28,0,0,1,8.18,4.2c3.41,6.08,3.64,12.4,1.64,18.93-31,47.2-31.64,47.92,11.41,89.22,18.41,17.67,29.68,37.13,26.68,62.16-5.2,43.39,10.9,83.76,15.43,125.73-4.71,2.78-9.3,2.74-13.75-.56C822.5,879.13,826,859.9,815.78,846.2Z" transform="translate(-150.99 0.3)" style="fill:#e7d4c8"/><path d="M834.42,892.13l13-.75c5.12-6.54,10.87-11.13,19.64-6.32,12.91,8.75,8.33,34.35,31.76,33,2.63,4.31.95,8.1-1.38,11.83-7,6.19-11,17.62-23.85,13.45-12.14-7.47-29.44-4.83-38-19.38Q835,908,834.42,892.13Z" transform="translate(-150.99 0.3)" style="fill:#f8f9f9"/><path d="M383.14,800.88c-11.27,10.36-16.57,23.75-19.43,38.36l-19,.63q-.39-3.36-.79-6.72l.34-4.55c-.82-18.57.89-36.81,7.21-54.47,5.54-8.06,10.35-16.89,20.73-19.94,16,5.6,18.82,18.21,17.47,33A37.38,37.38,0,0,1,383.14,800.88Z" transform="translate(-150.99 0.3)" style="fill:#f0f0ef"/><path d="M615.36,672.32c-115.69,0-231.39-.51-347.08.42-24.06.19-34.07-5.4-34-32.09.13-84.41-1-84.41,84.13-84.4H626.91c12.61,13.09,4.27,28.45,3.77,42.57-.57,15.89-1.74,31.7,0,47.6C630.48,658,627.86,668.09,615.36,672.32Z" transform="translate(-150.99 0.3)" style="fill:#c8e2eb"/><path d="M344,833.16c-18.1-25.8-20.7-54.9-18.92-85.22,1.12-19-4.23-36.14-26.82-35.68-21.33.43-32.71,13.24-31.23,36.06.9,13.89.41,27.89,0,41.82-.32,9.7-.41,20.76-15,19.07-11-1.27-17.09-7.49-17-19.38q.37-41.84,0-83.68c-.17-15.07,7.05-21,21.66-20.93,55.35.12,110.72.52,166.06-.53,64.19-1.22,128.35-3.87,192.52-5.91,14.57,18.24,5.75,35.32-2.53,52.46-10.48,9.43-22.29,9.08-34.63,4.68-14.56-11.08-29.2-20.84-45-1.59-11.8,6.36-24.08,6.79-36.7,3.12-21.2-23.56-44-11.66-66.56-2.77-14.83.8-25.55-9.68-38.46-14-7-1.54-11.65,1.57-14.88,7.62-10.61,16.24-12.5,36.2-22.93,52.47-6.19,17.06-3.49,35.55-8.73,52.73Z" transform="translate(-150.99 0.3)" style="fill:#c8e2eb"/><path d="M622.14,646.47c-13.24-30.86,1.63-60.22,4.78-90.2,4.83-13.67,9.3-27.54,20.06-38.09,4.94-.64,9,1.23,12.53,4.47A21.3,21.3,0,0,1,665.2,535c.12,14.94-3.63,29.46-8.21,43.27-5,15.2-5.13,27.25,4.81,41.05,13.14,18.23,11.24,33.87-14.74,38.88C636.54,659,628.87,653.72,622.14,646.47Z" transform="translate(-150.99 0.3)" style="fill:#e7bfb9"/><path d="M622.14,646.47l25.56,6.4c7.37-5.09,12.46-3.13,15.58,5-10.28,29.39-13.09,62.61-42,82.56-7.09,0-14.29.05-12.64-10.5q3.26-25.58,6.53-51.16.09-3.23.19-6.46Z" transform="translate(-150.99 0.3)" style="fill:#e7d4c8"/><path d="M653.79,524.24l-6.8-6.07c2.36-16,15.17-28.77,14.26-45.81,7.45,1,11.56,5.19,12.44,12.6C681.62,505.44,681.24,521.69,653.79,524.24Z" transform="translate(-150.99 0.3)" style="fill:#f2f2f2"/><path d="M1505,942.14c10.83-3.05,21.42-9.32,34.91-1.81-15.72,21.82-37,29.37-62.07,29.16-7.05-14.44.8-22.1,12.7-27.92C1495.42,939.89,1500.26,939.62,1505,942.14Z" transform="translate(-150.99 0.3)" style="fill:#e2c2be"/><path d="M1491.22,944.15q-6.68,12.67-13.37,25.34l-11.29,12.8-12.86-6.92c-10.87-16.53,3.76-23.08,12.49-31.94l7.63-.71C1480,938.17,1485.9,937.77,1491.22,944.15Z" transform="translate(-150.99 0.3)" style="fill:#f8f6f5"/><path d="M1491.22,944.15l-17.4-1.43a52.41,52.41,0,0,1-1.05-5.85c12.59-9.5,22,.16,32.23,5.28Z" transform="translate(-150.99 0.3)" style="fill:#9fc0cc"/><path d="M1557,769.07c55.54-12.74,111-25.71,166.68-38,9.13-2,19.2-2.27,26.81,5.75q0,8,0,16c0,56-.19,53-54.08,56.44a821.21,821.21,0,0,1-104.17.3C1560.6,807.59,1553.47,795.9,1557,769.07Z" transform="translate(-150.99 0.3)" style="fill:#b7d9e4"/><path d="M1453.78,807.77c-.91-13.3,6.18-18.76,18.61-20.58s25.25-3.85,37.12-8c28.26-9.86,37.35,1.73,34.54,28.56C1514,819.25,1483.87,815.4,1453.78,807.77Z" transform="translate(-150.99 0.3)" style="fill:#b7dae5"/><path d="M860.3,446.57l303.11.07c11.87,5,17.34,13.5,14.48,26.53-5.07,5.22-17.72,5.09-12.52,17.55a11,11,0,0,1-3.21,4.6c3.76,1.49,5.12-1.39,6.82-3.82,1.2-5.7,1.83-11.58,7.78-14.66,32.27,3.86,41.21,32,56.2,53.88a26.59,26.59,0,0,1-.93,14.55c-13.54,20.49-23.64,42.24-28.08,66.79-2,11-4.25,23.33-16.32,29.32-3.9-.86-7.58-3.18-11.86-2.25a14.34,14.34,0,0,1,6.14.13c4.24,2.75,5.09,6.66,4.57,11.14a15.91,15.91,0,0,1-5.15,7.26c-8.74,6.6-20.88,3.26-30.32,10.34,9.39,8.71,25.41,6.38,31.23,19.69,4.19,11.37,4.37,22-5.78,30.62-19.27-3.92-36.9-1.51-51.24,13.61-22,5.36-43.9,9.24-63.82-6.24-4-6.28.78-9.37,4.73-12.78-3.7,2.17-6.46,5.37-9.29,8.57-11.42,8.19-23.85,7.33-36.54,4.25-11.58-3.29-19.68-12.64-30.3-17.58-8.36-3.28-15.4,1.42-22.81,4-13.19,4.93-35.68,5.76-11.36,26.63,7.82,8,5.84,17.41,3.82,26.58a2.89,2.89,0,0,0,1.77,3.7c6.49-11.53,15.45-19.25,28.16-22.14a15.46,15.46,0,0,1,8.49,2.26c21.91,31.17,24.65,31.47,47.88,5.17,5.94-3,11.24-1.93,16,2.52,16.35,21.49,37.4,16.91,58.77,10.49,8.46-1.41,17.14-1.56,25.08,1.23,22.27,7.83,40.48,5.57,55.34-15.36,6.06-8.54,16.05-19.83,27.5-3.63,7.88,21.35,9,42-5.47,61.37-13.75,11-30.17,9.87-46.23,9.92-83.83.24-167.66.66-251.48-.27-24.43-.27-44.37,5-58.48,25.82l-.58-.12c-27.62-14-17.82-36.86-13.77-58.31,4.91-11.13,15-14.73,25.79-16,14.23-1.71,21-9.39,20.57-23.34-.33-11.23,3.78-26.87-11.66-29.27-18.3-2.84-13.73,14.6-16.14,24.92-2.35,10-.77,21.94-13.79,26.39-6.92-2.12-11.66-7.61-11.84-13.83-1-32.91-19.13-60.65-26.5-91.61-4.08-65.18-8.15-130.34.56-195.48C826.84,450.88,839,440.66,860.3,446.57Z" transform="translate(-150.99 0.3)" style="fill:#c8e2eb"/><path d="M1227.62,530.8c-22-12.59-28.83-39.91-50.8-52.56q-2.59-1.55-2.15-3.6t1.2-2.17l-12.45-25.82c27.87-36.41,63.22-65.11,97.58-94.83,34.8,5.47,39.8,18.83,18.55,49.58-4.56,21.68-25.19,27.81-39.05,40.5-29.37,22.35.22,37.17,7.09,54.84,3.74,7.34,6,14.93,4,23.26C1246.65,530.3,1239.39,535.58,1227.62,530.8Z" transform="translate(-150.99 0.3)" style="fill:#fbe8dc"/><path d="M796.31,408.18l-.16-19.07c3.65-4.32,7.61-4.37,11.83-.85-2.14,34.46,16.28,29.85,38.52,21.16,10.37-4,20.68-8.23,26.19-17.53,9.22-15.54,14.49-35.36,39.33-27.74,10.42,3.19,16.85,12.71,16.42,21.92-1,21.64-22.68,22.79-36.27,31.9a51.43,51.43,0,0,1-5.74,2.92c-9.87,6.08-20.19,11.36-30.29,17C814.84,461.14,798.67,453.1,796.31,408.18Z" transform="translate(-150.99 0.3)" style="fill:#efdacd"/><path d="M796.31,408.18c14.42,38.26,19.11,40,59.83,21.15,9.71-4.5,19.18-9.26,30.3-8.45-5.3,12-18.08,16.47-26.14,25.7l-32.07,19.36c-25.25,20.59-32.48,19.52-45.38-6.74Z" transform="translate(-150.99 0.3)" style="fill:#e7d5c9"/><path d="M808,388.26l-11.83.84c1.47-15-4.59-30.94,5.18-45C806.31,358.4,811.33,372.7,808,388.26Z" transform="translate(-150.99 0.3)" style="fill:#f7f9f9"/><path d="M763.32,292.09c7.14,10.06,14.86,19.52,26.13,25.33q.52,2.91.77,5.85C772,320.87,759.55,313.48,763.32,292.09Z" transform="translate(-150.99 0.3)" style="fill:#fcfbf9"/><path d="M796.4,285.62c-3.15-2.67-5.82-6.37-2.35-9.61,5.62-5.24,10.6-1.6,14.85,3Z" transform="translate(-150.99 0.3)" style="fill:#e8d7cb"/><path d="M660.57,659.42l-12.87-6.55c3.74-7,23.48-8.37,11.44-20.14-36-35.21-6.76-67.82,1.34-101.4,14.41-9.62,28.39-3.15,42.17,1.55S730,544.46,745,537.23l17.83-.37c21,14,32.55,31.42,21,57.32-6.6,28.26-34.44,35.26-52.31,52.24-6.36-4.06-9.27-10.48-11.8-17.89.59,8.42-2.71,15-6.17,21.52-3.83,6.76-6.64,14.21-13.17,19.11a25.47,25.47,0,0,1-9.19,3.6C678.72,673.45,667.65,671,660.57,659.42Z" transform="translate(-150.99 0.3)" style="fill:#eec1bb"/><path d="M782.86,459.19c12.54,19.64,29.28,11,45.38,6.74q-.33,100.17-.66,200.35c-28.74-5.52-38-25.42-38.33-51.92l.24-19.46c-3.31-28.85-17.92-55.06-19.73-84.26C769.43,492.3,771.68,474.61,782.86,459.19Z" transform="translate(-150.99 0.3)" style="fill:#b7d9e4"/><path d="M686.2,362.79c10.51,5.32,19,2.39,26-6.44,21.81,19,22.51,22,6,36.71-4.79,4.26-2.07,6.9-.47,10.62s2.65,7.73,3.95,11.61c-48.5,5.05-1.17,30.93-9.71,44.67-2.18,2.41-4.38,2.31-6.59,0-15.14-13.57-31.58-26-38.89-46.2-6.45-12.87-10.89-25.7.75-38.21Z" transform="translate(-150.99 0.3)" style="fill:#f2f1f0"/><path d="M705.36,460l6.59,0c9.23,10.59,34.16-.14,32.8,25.82-1.15,21.92-14.4,28.46-32.42,31.5-15.14-5.42-30.74-10.48-26-32C676.48,464.63,694.6,465.09,705.36,460Z" transform="translate(-150.99 0.3)" style="fill:#f0dbce"/><path d="M686.34,485.24l26,32c.36,23.84,18.89,18,32.63,19.95-29.22,13.18-56.92,4.6-84.48-5.91l-6.69-7.08c15.49-8.6,13.34-26.13,19.89-39.27Z" transform="translate(-150.99 0.3)" style="fill:#f2efee"/><path d="M769.75,510.64c19.62,25,28,52.7,19.73,84.26q-2.87-.25-5.7-.72c-1.08-21.27-16.62-37.25-21-57.32C764.16,527.87,762.22,518,769.75,510.64Z" transform="translate(-150.99 0.3)" style="fill:#c0dee9"/><path d="M667.23,375.6q-.37,19.11-.75,38.21C658.86,400.92,623.73,387.48,667.23,375.6Z" transform="translate(-150.99 0.3)" style="fill:#bcdae2"/><path d="M654.09,323.9c5.84-11.32,14.79-19.35,26.19-24.79,10.42,22.23-4.28,24.2-20.26,25.15Q657,324.18,654.09,323.9Z" transform="translate(-150.99 0.3)" style="fill:#f8f8f8"/><path d="M1235.16,434.3l44.38-32.9c12.26,23.19-6.25,44-7.5,66.4-1,17.36-6.34,38.45-12.22,57.23-7,2-9.64-2.57-12-7.73l-7.76-18.35C1234,477.74,1220,457.13,1235.16,434.3Z" transform="translate(-150.99 0.3)" style="fill:#a0b6be"/><path d="M1294.23,561.38c-10.26,13.78-22,23.27-40.33,14.17-12.2-4.33-18.08-13.06-18.08-25.92,2.78-13.13,10.49-19.85,24.3-18.6,19.5-3.4,24.52,12.83,33,24.35a5,5,0,0,1,1.65,3.83Q1294.69,561.38,1294.23,561.38Z" transform="translate(-150.99 0.3)" style="fill:#fae8dd"/><path d="M1260.12,531l-19.32,18.31c-7.08,3.78-10.41-.3-12.89-6.15q-.14-6.2-.29-12.39l20.23-13.5,12,7.72Q1260,528,1260.12,531Z" transform="translate(-150.99 0.3)" style="fill:#ecc4be"/><path d="M1294.23,561.38a42.32,42.32,0,0,1-1.1-6c8.59-7.5,17-7.33,25.13.69Z" transform="translate(-150.99 0.3)" style="fill:#9ab1ba"/><path d="M1435,943l-26.83-70.56c21.77,19.35,32.28,45.94,45.55,70.76C1447.46,948.8,1441.22,948.4,1435,943Z" transform="translate(-150.99 0.3)" style="fill:#f4e3d7"/><path d="M1435,943l18.73.21,12.43.17-12.49,31.95q-6.51.79-13,1.6C1431.85,966.82,1434.08,954.83,1435,943Z" transform="translate(-150.99 0.3)" style="fill:#e0c1bd"/><path d="M1221.56,807.73q-.14-32.43-.29-64.86c-7-35.75,14.47-56.9,39.12-76.45,6.3-4.06,12.72-4.1,19.26-.62,26.78,29.9,53.36,60,80.48,89.59,8.77,9.57,17.84,18.37,15.6,32.88-23,24.21-56.75,18.66-84.24,30.55-15.44,2.54-31,2-46.55,1.88C1235.33,820.6,1223.07,823.27,1221.56,807.73Z" transform="translate(-150.99 0.3)" style="fill:#b7d9e4"/><path d="M1260.39,666.42l-39.11,76.45c-5,6.68-11.25,12.78-14.88,20.15-12.16,24.72-30.11,29.71-54.39,18.56a64.48,64.48,0,0,0-33.77-5.79c-20.9,2.92-40.25-.67-57.41-13.57l-13.37-5.63c-18.89,11.38-35.75,6.7-51.54-6.49l-7.25.29c-.88-1.21-1.76-2.42-2.66-3.63a16.8,16.8,0,0,1,1.06-13.1c7.93-8.07,13-21.27,28.39-16.3l44.77.31,0-.06c22.78,12.36,47.46,3.72,71.11,6.4,10.85-7,21.59,0,32.41.17,10,.5,16.1-5.3,19.09-13.57,8.36-23.13,27.07-36.66,45.31-50.76Z" transform="translate(-150.99 0.3)" style="fill:#fce8dc"/><path d="M1227.91,543.19l12.89,6.16,13.1,26.2c-27,19.31-42.28,46.49-51.7,77.55-6.1,5.24-12.21,5.45-18.33,0l-.9-13v0c9.56-14.77,9.81-32.09,13.79-48.46C1201.49,572.3,1205.37,551.5,1227.91,543.19Z" transform="translate(-150.99 0.3)" style="fill:#f4f5f5"/><path d="M1183.87,653.14l18.33,0c7.16,7.89,17,5.71,25.9,6.76-15.5,30.66-37.9,55.55-64.37,77-4.64-8.66-1.22-14.67,6.35-19.31,9.23-9.29,5.61-21.26,6.73-32.25-4.63-12-4-23.05,6.2-32.24Z" transform="translate(-150.99 0.3)" style="fill:#f3e3d8"/><path d="M1221.56,807.73l71,0c17,3.44,33.14-1.11,49.66-4,11.3-2,23.43-3,34.11,4,5.63,10.1,7,21,6.36,32.37-24.55,10.2-50.54,5.67-75.68,5.82-146.67.91-293.35.43-440,.42-5.45-31.6,8.52-39.8,39.14-39.29C1011.25,808.83,1116.41,807.74,1221.56,807.73Z" transform="translate(-150.99 0.3)" style="fill:#bedde8"/><path d="M1376.35,807.79c-27.92,4.49-55.85,12.85-83.77,0l83.16-19.51Q1376,798,1376.35,807.79Z" transform="translate(-150.99 0.3)" style="fill:#c4e0ea"/><path d="M789.25,614.37c13.63,16.67,21.32,37.73,38.33,51.91C850.1,697,852.95,734,860.27,769.51c3.54,4.11,4.1,8.26.15,12.47,2.28,21.41-5.46,43.76,6,64.31q.3,19.38.61,38.77l-19.64,6.33c-20-25.72-28.81-55.83-25-87.19,5.54-45.71-6.73-81.38-42.24-111.93C743.92,661.1,738.29,655,789.25,614.37Z" transform="translate(-150.99 0.3)" style="fill:#f0dbcd"/><path d="M891.53,924.79l7.28-6.79c15,6.59,30.09,8.6,46,2.51,9-3.45,20.85-7.21,25.56,4,4.62,11-7.59,16.58-14.86,21.79-6.73,4.82-15.48,6.84-23.33,10.09-12.57-3.24-25.24,6-37.8-.26C885.5,946.41,891.39,935.34,891.53,924.79Z" transform="translate(-150.99 0.3)" style="fill:#f0f1f0"/><path d="M891.53,924.79c21.55,8.6,6.3,20.5,2.83,31.35-6.15,10.34-16.19,13.44-27.27,14.61-8.7-11.71,8.85-17.23,6.49-27.46Z" transform="translate(-150.99 0.3)" style="fill:#a1b8c1"/><path d="M660.57,659.42,693,666.15a17.76,17.76,0,0,1,4.87,12.69c-5.5,22.51-18.66,41.66-27.49,62.74-4.38,12.2-12.26,22.42-18.64,33.54-12.13,12.77-24.87,24.33-44.45,22.17-15.58-1.51-27.35-14.18-43.26-14.78L525.12,782c-22.18,5.47-42.72-6.18-64.38-6.16l-19.81-1c-3.94-5.13-3.33-10.15.31-15.12,53-23.66,107.22-39.36,165.71-22.17,5.27,1.55,10.07,3.43,14.86-.69C639.27,713.29,634.55,678.66,660.57,659.42Z" transform="translate(-150.99 0.3)" style="fill:#f0dbce"/><path d="M608.93,788.34c17.41,2.49,26.38-11.73,38.63-19.47,10.31,3.28,14.09,16.83,26.47,16.64,11.48-9.19,5.55-22,6.37-32.92,2.81-37.59,14.27-51.85,43.06-50.91,29.86,1,39.09,13,39.39,53.24.12,16.89,2.61,34.45-7.89,49.79-1.36,1-2.75,2-4.13,3.06-55.89,5.74-111.79,13.2-167.68,0C589.49,798.32,602.44,797.6,608.93,788.34Z" transform="translate(-150.99 0.3)" style="fill:#c0dee8"/><path d="M460.74,775.83c21.75-1,43.38-.77,64.38,6.16-.82,12.19,2.82,28.21-14.72,30.22-16.66,1.9-13.6-13-17.15-23.79C488.63,774.36,468.94,787.76,460.74,775.83Z" transform="translate(-150.99 0.3)" style="fill:#c8e1e9"/><path d="M434.86,775.7c11.35,13.7,8.49,28.8-4.9,35.55-21,10.58-21.65-10.86-27.43-22.85-3-8.39,1.2-13.62,7.79-17.84C419.55,767.21,428,767.44,434.86,775.7Z" transform="translate(-150.99 0.3)" style="fill:#c7e1ea"/><path d="M434.86,775.7l-25.66.3c-5.14-.78-8.58-3.73-10.7-8.39a21.53,21.53,0,0,1-.61-9.7c5.19-16.26,16.63-24.31,33.4-25.36,5.53-.58,10.18,1,13.71,5.47,4.78,9,3,17.06-3.31,24.52q-.37,6.14-.75,12.28Q437.89,775.24,434.86,775.7Z" transform="translate(-150.99 0.3)" style="fill:#fbfbfa"/><path d="M789.68,729.82c15.35,8.54,12.82,23.48,12.44,37-.45,16.27,2.82,31.79,6.56,47.35l-19.12-6.44c-1.54-1.31-3.09-2.62-4.66-3.92C773.87,778.36,770.27,753.34,789.68,729.82Z" transform="translate(-150.99 0.3)" style="fill:#bad9e3"/><path d="M608.93,788.34c1.18,19.45-11.92,20-25.79,19.45,3-15.46-10.55-18.5-19.09-25.28C579.56,780.27,594.19,784.78,608.93,788.34Z" transform="translate(-150.99 0.3)" style="fill:#c7e3ec"/><path d="M402.87,769,409.2,776l-6.66,12.41-19.39,12.49q.3-7.11.61-14.22C389.09,779.67,391.12,769.09,402.87,769Z" transform="translate(-150.99 0.3)" style="fill:#f5f6f6"/><path d="M789.56,807.75q-19.36,14.17-38.73,0h0q19.34-17.14,38.68,0Z" transform="translate(-150.99 0.3)" style="fill:#c0dee8"/><path d="M789.52,807.77H750.84c0-21.37-2.35-43.07.57-64,4-29-14.34-30.82-33.86-32.18-23.3-1.62-25,14.45-24.81,31.91.21,16,0,32.06-.31,48.08-.14,6.65-1.88,12.95-9.62,14.67-9.29,2.06-14-2.73-15.83-11.34-17.76-17.59-2.77-38.47-5.77-57.55,9.88-19.9,17-41.27,31.35-58.8,17.33-9.47,34.56,1.3,51.85.26,20.2,12.49,32.27,32.2,45.28,51.06Q789.6,768.79,789.52,807.77Z" transform="translate(-150.99 0.3)" style="fill:#c8e2eb"/><path d="M744.4,678.77c-17.34,12.47-34.59,5.29-51.85-.26q.23-6.18.47-12.36a53.74,53.74,0,0,1,5.59-.66c11-7.14,21.78-2.45,32.6.55Z" transform="translate(-150.99 0.3)" style="fill:#c2dfe9"/><path d="M705.7,646.95c7-11.08,5.55-26.47,19.51-36.95l6.28,36.43-6.5,6.91C715.78,659.6,709.9,655.81,705.7,646.95Z" transform="translate(-150.99 0.3)" style="fill:#e6c0ba"/><path d="M705.7,646.95,725,653.32,731.21,666c-11,7.09-21.84,6.39-32.6-.55C699.55,658.76,699.32,651.59,705.7,646.95Z" transform="translate(-150.99 0.3)" style="fill:#c9e1e9"/><path d="M402.87,769c-4.33,8.1-10.41,14.3-19.12,17.63l-13.16-31c-7.65-15.39-1.65-26.28,11.49-34.83,25.64,5.43,18.42,26,19.65,42.68A15.14,15.14,0,0,0,402.87,769Z" transform="translate(-150.99 0.3)" style="fill:#a5bbc4"/><path d="M383.23,724.08c-7.89,9-11.06,20-12.65,31.56-.69,9.07-4.67,16-13.15,19.89-2,3.16-4,3.34-6,0,8-18.8,6-40.91,19.15-58,3.82-3.59,8-4.23,12.71-1.78A6.56,6.56,0,0,1,383.23,724.08Z" transform="translate(-150.99 0.3)" style="fill:#f5f6f5"/><path d="M351.42,775.54l6,0c-.55,20.12-4.29,39.55-12.67,58C345,813.94,340.73,793.88,351.42,775.54Z" transform="translate(-150.99 0.3)" style="fill:#f6f6f6"/><path d="M362.61,616c8.64-9.72-14.92-33.92,17-34,33.71-.07,20.7,25.21,22.69,41.65,1.92,15.83.44,29.59-22.16,29.58C345.33,653.21,369.59,628.75,362.61,616Z" transform="translate(-150.99 0.3)" style="fill:#c1dee9"/><path d="M447.25,620.93c4-14.62-9.25-41.26,22.14-37.94,28.52,3,14.07,27.79,16.68,43.23,3,17.8-3.93,27.57-24.34,27C432.55,652.36,450.63,632.62,447.25,620.93Z" transform="translate(-150.99 0.3)" style="fill:#c0dee9"/><path d="M570.12,614c1.64,17.3.79,35.09-21.46,35.36-24.54.3-16.13-20.86-16.62-33.91-.51-13.52-6.48-32.42,18.19-33.07S569.17,600,570.12,614Z" transform="translate(-150.99 0.3)" style="fill:#c0dee8"/><path d="M279.68,617.28c2.48-14.58-6.55-35.74,20.13-34.86,25.85.85,10.58,20.58,11.74,31.12,1.43,13,6.85,32-17.46,32.76C267.24,647.1,284.46,626.74,279.68,617.28Z" transform="translate(-150.99 0.3)" style="fill:#c0dee8"/><path d="M441.69,762.53V736.87c15-17.63,32.11-19.51,51.15-6.8,13.05-1.06,27,4,38.77-5.81,15-9.94,30-7.1,45.09-.05,9.37,9,21,5.58,32,5.75l13.17,6.87c-41.78,1.91-84.11-2.44-124.64,13C479.43,756.6,461.95,766.1,441.69,762.53Z" transform="translate(-150.99 0.3)" style="fill:#e7d5c9"/><path d="M383.23,724.08l-.09-6.55c.55-3.89,2.72-6.17,6.65-6.72,15.45,1.39,26.2,12.14,38.69,19.45q2.23,1.94,1.64,4t-1.29,2.14c-11.51,6.53-20.28,15.79-27.08,27Q392.48,743.78,383.23,724.08Z" transform="translate(-150.99 0.3)" style="fill:#edecec"/><path d="M428.82,736.44q-.31-3.08-.35-6.18c36.52-25.35,45-25.38,64.36-.19l-51.15,6.79Z" transform="translate(-150.99 0.3)" style="fill:#c2dfe9"/><path d="M576.68,724.2l-45.09,0C546.6,702.49,561.64,710.8,576.68,724.2Z" transform="translate(-150.99 0.3)" style="fill:#c0dfea"/><path d="M389.78,710.81l-6.64,6.72-12.57,0C375.15,710.11,379.13,700.95,389.78,710.81Z" transform="translate(-150.99 0.3)" style="fill:#eeedee"/><path d="M907.67,581.75c2.68,42.47-2,48.88-30.17,45.59-10.66-1.24-14.88-4.53-14.39-15.85.54-12.68-2.2-25.48-2-38.2.31-17.72,2.08-32.1,27.93-30.81,25.27,1.26,20.66,14.72,18.68,29.75C907.32,575.34,907.67,578.57,907.67,581.75Z" transform="translate(-150.99 0.3)" style="fill:#c3e0e9"/><path d="M1092.57,592.05c-14.16-3.65-30.92-1.63-29-23.75,1.11-12.82-3.75-26.58,17.43-25.09,14.94,1.05,31.65-2.37,30.94,21.22-.45,15-.14,30-.19,45,0,11.87-6.13,17.86-17.9,17.52-10.29-.3-23.65,4.05-28.66-8.34C1054.56,592.26,1076.53,595.49,1092.57,592.05Z" transform="translate(-150.99 0.3)" style="fill:#c3e0e9"/><path d="M860.42,782q-.07-6.24-.15-12.47c.07-11.74.74-23.52.06-35.22-1.07-18.52,2.61-29.13,25.48-30.53,25.59-1.56,24.61,14.57,25.45,29.77C913.94,782,913.54,782,860.42,782Z" transform="translate(-150.99 0.3)" style="fill:#c3e0e9"/><path d="M976.54,589.6c-3,10.94,7.14,27.81-9.74,35.59a37.23,37.23,0,0,1-31.23-.62c-11.27-5.48-6.74-16.45-6.19-25.66.57-9.56,2-19.11,1.88-28.65-.27-15.51,1.74-26.87,21.89-27.19,21.92-.35,24.39,12.05,23.43,28.84C976.28,577.23,976.54,582.59,976.54,589.6Z" transform="translate(-150.99 0.3)" style="fill:#c2dfe9"/><path d="M1176.49,589.86c-2.59,14.28,13.37,37.58-20.26,37.76-23.53.12-28.46-12.9-24.3-30.24,4.42-18.45-15.69-48,19.74-53.49C1174,540.42,1175.6,544.88,1176.49,589.86Z" transform="translate(-150.99 0.3)" style="fill:#c2dfe9"/><path d="M887.53,472.59c21.4-3,21.72,12.61,22.74,28.47,1.15,17.86-6.19,22.71-24.09,23.73-22.82,1.3-23.55-11.63-24.91-27.3C859.66,478.93,869.15,472.16,887.53,472.59Z" transform="translate(-150.99 0.3)" style="fill:#c2e0e9"/><path d="M1040.5,495.72c8,22-1.56,28.64-22.67,28.59-22.66-.06-21.53-14.19-22.07-29.81-.78-22.59,13.86-21.89,29.58-22.22C1043.67,471.9,1048.72,479.32,1040.5,495.72Z" transform="translate(-150.99 0.3)" style="fill:#c2dfe9"/><path d="M976.21,494.45c1.14,17.43-.58,28.92-20.77,29.88-24.61,1.18-22.64-14.69-25.19-30.84-3.17-20,8.31-20.47,22.22-21.13C970,471.53,979.09,478.13,976.21,494.45Z" transform="translate(-150.99 0.3)" style="fill:#c2dfe9"/><path d="M1083.12,472.5c17.08-.29,29.75,3.6,28,23.07-1.38,15.24-3,28.8-25.21,28.94-31.62.2-16.87-23.15-20.83-36.5C1059.49,469.25,1074.85,473.9,1083.12,472.5Z" transform="translate(-150.99 0.3)" style="fill:#c2dfe9"/><path d="M885.16,633.66c17.21,0,18.27.58,11.29,13.09-4.26,7.63,1.77,5.39,4,6.44,16.55,7.6,10.69,20.78,2.88,27.52-9.8,8.46-25.69,8.51-35.34-.5s-5.71-24-4.57-36.36C864.85,628.87,877.8,635.65,885.16,633.66Z" transform="translate(-150.99 0.3)" style="fill:#c2dfe9"/><path d="M1084.13,634.64c22.94-6,25.26,7.61,26.88,24.13,2,19.88-10.41,20.23-24,19.95-12.59-.26-28.06,2.14-25.43-18.23C1063.32,646.91,1059.39,626.49,1084.13,634.64Z" transform="translate(-150.99 0.3)" style="fill:#c2dfe9"/><path d="M1020.45,588.41c-13.14.12-25.26-.1-23.63-18,1.36-15,.79-31.45,24.11-27.09,10.26,1.92,25.67-4.95,23.46,15.93C1042.73,574.93,1041.69,590.24,1020.45,588.41Z" transform="translate(-150.99 0.3)" style="fill:#c2dfe9"/><path d="M951.78,650.92c11.72,3.66,27.86,1.67,23,20.1-4.42,16.92-19.23,15.16-31.65,13.47-23.77-3.24-12-21.69-11-32.91,2.62-28.61,23.47-15.34,39-16.36C971.87,651.38,957.69,642.89,951.78,650.92Z" transform="translate(-150.99 0.3)" style="fill:#c2dfe9"/><path d="M1020.38,678.61c-11.74.4-21,1-21.34-11.52-.26-11-6-25,6-31.48,7.27-3.91,19.47-2.68,27.8.53,8.53,3.28,2.23,7.85-3.12,9.89-6,2.28-11.13,4.54-.38,7.33,9,2.35,12.71,8.1,9.91,16.62C1035.66,680.87,1025.41,677.53,1020.38,678.61Z" transform="translate(-150.99 0.3)" style="fill:#c2dfe9"/><path d="M995.92,750.1c17.75-2.37,34.79.9,51.54,6.49-1.14,14,3.54,30.38-21.25,29.28C1001.14,784.76,992.36,773.6,995.92,750.1Z" transform="translate(-150.99 0.3)" style="fill:#c4e0e9"/><path d="M1183,653.1c-.61,11,2.56,22.78-6.21,32.24-9.3-1.09-18.58-2.9-27.9-3.05-8.72-.14-17.24,1.45-17.3-11.45-.06-11.56,5.1-17.63,16.86-17.65Z" transform="translate(-150.99 0.3)" style="fill:#c2dfe9"/><path d="M1018.15,627.11c-11.37.33-19.9-.08-19.86-16.4,0-17,9.92-15.53,20.53-15.74,11.28-.22,19.91.09,19.84,16.44C1038.59,628.42,1028.76,627,1018.15,627.11Z" transform="translate(-150.99 0.3)" style="fill:#c1dfe9"/><path d="M956.71,743.34c-9.72,0-24.39,11.88-25.09-10.12-.45-13.94-2.07-29,19.17-28.54,6.33.13,12.67-.09,19-.15a12.28,12.28,0,0,1,3.9,7.23c-.35,10.17-3.16,19.48-9.69,27.5A15.8,15.8,0,0,1,956.71,743.34Z" transform="translate(-150.99 0.3)" style="fill:#c1dee8"/><path d="M956.71,743.34l.65-6.76c4.77-2.93,8.92-6.92,14.51-8.45,13.18,1.37,9.39,16.33,17.45,21.81l-.65.45c-17.39,10.61-17.9,35.5-37.46,44.27-5.77-10.63-5.5-21.28-.15-32Z" transform="translate(-150.99 0.3)" style="fill:#eac2bd"/><path d="M1170.09,717.59l-6.35,19.31L1131.29,724c-.74-12.07,4.12-21.18,16.32-23C1159.37,699.31,1167.72,705.11,1170.09,717.59Z" transform="translate(-150.99 0.3)" style="fill:#c2dfe9"/><path d="M1060.83,762.23c20.55-1.47,38.14,9.62,57.41,13.56C1096.42,782.6,1073.54,793.95,1060.83,762.23Z" transform="translate(-150.99 0.3)" style="fill:#c4e0e9"/><path d="M1015.46,717.37c-10.61,3.27-12.27,18.59-25.22,18.71-9.37-6.17-13.4-15-13.2-26.06,1.47-6.78,2.63-13.88,12.37-12.45C1001.76,699.35,1009.82,706.77,1015.46,717.37Z" transform="translate(-150.99 0.3)" style="fill:#edc3bd"/><path d="M1175.86,472.47a35.84,35.84,0,0,1,.95,5.78q-.17,10-.35,20c-7.1,3.46-10.46-.59-12.9-6.45-6.63-9.8-20.56-2.62-29.15-13.66C1147.66,468.42,1162.46,474.14,1175.86,472.47Z" transform="translate(-150.99 0.3)" style="fill:#c1dfe9"/><path d="M1060.23,717.68c11.34-25,30.31-7.95,46-9.08-13.42,13.69-30.54,6.78-46,9Z" transform="translate(-150.99 0.3)" style="fill:#c6dfe8"/><path d="M1183,640.11c-15.45,7.29-30.86,9.75-53-.74,22.32-7.19,37.73-9.64,53.06.77Z" transform="translate(-150.99 0.3)" style="fill:#c1dfe9"/><path d="M1136.87,519.14c11.3-10,22.77-10,37.25-2.42C1160.7,528.62,1148.54,522.13,1136.87,519.14Z" transform="translate(-150.99 0.3)" style="fill:#c1dfe9"/><path d="M1163.57,491.75l12.9,6.45c-13,10-26.41,7.33-43.8,1.87C1143.36,488.72,1154.19,492.88,1163.57,491.75Z" transform="translate(-150.99 0.3)" style="fill:#c1dfe8"/><path d="M989.42,697.57,982.77,710a6.69,6.69,0,0,1-5.61,4.5,10.32,10.32,0,0,1-6.71-3.43q-.32-3.28-.64-6.56C974.76,697.76,978.59,687.8,989.42,697.57Z" transform="translate(-150.99 0.3)" style="fill:#acc1ca"/><path d="M951.06,762.7q.07,16,.15,32C941.43,784,941.27,773.4,951.06,762.7Z" transform="translate(-150.99 0.3)" style="fill:#aeccd6"/><path d="M1235.16,434.3c5.78,21.23,7,42.81,4.94,64.64C1204.83,459.26,1204.61,456.44,1235.16,434.3Z" transform="translate(-150.99 0.3)" style="fill:#bbdbe5"/><path d="M975.9,710.89l6.87-.86q3.73,13,7.47,26.06-.45,6.92-.92,13.86c-13.72.24-11.7-14-18.52-20.12C966.4,721.87,971.92,716.58,975.9,710.89Z" transform="translate(-150.99 0.3)" style="fill:#faf8f8"/><path d="M661.2,737.31c11.45,18.23,3.34,38.42,5.77,57.55-11.66-4.79-21-11.28-19.41-26Z" transform="translate(-150.99 0.3)" style="fill:#bedde8"/><path d="M975.9,710.89l-5.1,18.93-13.44,6.76c5.17-8.09,4.32-19.26,13.09-25.5Q973.18,711,975.9,710.89Z" transform="translate(-150.99 0.3)" style="fill:#b1bdc4"/></svg>